<svg xmlns="http://www.w3.org/2000/svg" xmlns:xlink="http://www.w3.org/1999/xlink" contentStyleType="text/css" data-diagram-type="DESCRIPTION" height="448px" preserveAspectRatio="none" style="width:1493px;height:448px;background:#FFFFFF;" version="1.1" viewBox="0 0 1493 448" width="1493px" zoomAndPan="magnify"><title>BrokerX - Diagramme de contexte</title><defs/><g><g class="title" data-source-line="7"><text fill="#000000" font-family="sans-serif" font-size="14" font-weight="bold" lengthAdjust="spacing" textLength="268.7207" x="605.5175" y="22.9951">BrokerX - Diagramme de contexte</text></g><!--cluster brokerx--><g class="cluster" data-entity="brokerx" data-source-line="14" data-uid="ent0006" id="cluster_brokerx"><rect fill="#F9F9F9" height="222.55" style="stroke:#000000;stroke-width:1;" width="793" x="7" y="220.0869"/><text fill="#000000" font-family="sans-serif" font-size="14" font-weight="bold" lengthAdjust="spacing" textLength="63.6973" x="371.6514" y="235.082">BrokerX</text></g><!--entity Op?rations Back-Office--><g class="entity" data-entity="Op.rations Back-Office" data-source-line="15" data-uid="ent0007" id="entity_Op.rations Back-Office"><rect fill="#F9F9F9" height="36.2969" rx="2.5" ry="2.5" style="stroke:#000000;stroke-width:0.5;" width="181.5332" x="141.23" y="263.0869"/><text fill="#000000" font-family="sans-serif" font-size="14" lengthAdjust="spacing" textLength="161.5332" x="151.23" y="286.082">Op&#233;rations Back-Office</text></g><g class="entity" data-entity="GMN8" data-source-line="17" data-uid="ent0009" id="entity_GMN8"><path d="M30.67,378.3669 L30.67,418.6325 L433.3228,418.6325 L433.3228,388.3669 L423.3228,378.3669 L30.67,378.3669" fill="#FEFFDD" style="stroke:#181818;stroke-width:0.5;"/><path d="M423.3228,378.3669 L423.3228,388.3669 L433.3228,388.3669 L423.3228,378.3669" fill="#FEFFDD" style="stroke:#181818;stroke-width:1;"/><text fill="#000000" font-family="sans-serif" font-size="13" lengthAdjust="spacing" textLength="381.6528" x="36.67" y="395.4338">S'occupe de l'appariement des ordres et de leur ex&#233;cution</text><text fill="#000000" font-family="sans-serif" font-size="13" lengthAdjust="spacing" textLength="176.2744" x="36.67" y="410.5666">et met &#224; jour les portfolios.</text></g><!--entity Conformit?/Risque--><g class="entity" data-entity="Conformit..Risque" data-source-line="21" data-uid="ent0011" id="entity_Conformit..Risque"><rect fill="#F9F9F9" height="36.2969" rx="2.5" ry="2.5" style="stroke:#000000;stroke-width:0.5;" width="150.0947" x="542.95" y="263.0869"/><text fill="#000000" font-family="sans-serif" font-size="14" lengthAdjust="spacing" textLength="130.0947" x="552.95" y="286.082">Conformit&#233;/Risque</text></g><g class="entity" data-entity="GMN12" data-source-line="23" data-uid="ent0013" id="entity_GMN12"><path d="M468.4,385.9369 L468.4,411.0697 L767.6051,411.0697 L767.6051,395.9369 L757.6051,385.9369 L468.4,385.9369" fill="#FEFFDD" style="stroke:#181818;stroke-width:0.5;"/><path d="M757.6051,385.9369 L757.6051,395.9369 L767.6051,395.9369 L757.6051,385.9369" fill="#FEFFDD" style="stroke:#181818;stroke-width:1;"/><text fill="#000000" font-family="sans-serif" font-size="13" lengthAdjust="spacing" textLength="278.2051" x="474.4" y="403.0038">Effectue les v&#233;rifications pr&#233; et post trade.</text></g><!--entity client--><g class="entity" data-entity="client" data-source-line="9" data-uid="ent0002" id="entity_client"><ellipse cx="791.9951" cy="51.2969" fill="#F1F1F1" rx="8" ry="8" style="stroke:#181818;stroke-width:0.5;"/><path d="M791.9951,59.2969 L791.9951,86.2969 M778.9951,67.2969 L804.9951,67.2969 M791.9951,86.2969 L778.9951,101.2969 M791.9951,86.2969 L804.9951,101.2969" fill="none" style="stroke:#181818;stroke-width:0.5;"/><text fill="#000000" font-family="sans-serif" font-size="14" lengthAdjust="spacing" textLength="40.5303" x="771.73" y="115.792">Client</text></g><g class="entity" data-entity="GMN3" data-source-line="11" data-uid="ent0004" id="entity_GMN3"><path d="M391.33,68.3769 L391.33,93.5097 L736.6698,93.5097 L736.6698,78.3769 L726.6698,68.3769 L391.33,68.3769" fill="#FEFFDD" style="stroke:#181818;stroke-width:0.5;"/><path d="M726.6698,68.3769 L726.6698,78.3769 L736.6698,78.3769 L726.6698,68.3769" fill="#FEFFDD" style="stroke:#181818;stroke-width:1;"/><text fill="#000000" font-family="sans-serif" font-size="13" lengthAdjust="spacing" textLength="324.3398" x="397.33" y="85.4438">Un utilisateur de BrokerX qui poss&#232;de un compte.</text></g><g class="entity" data-entity="GMN15" data-source-line="27" data-uid="ent0016" id="entity_GMN15"><path d="M827.24,261.1069 L827.24,301.3725 L1190.7659,301.3725 L1190.7659,271.1069 L1180.7659,261.1069 L827.24,261.1069" fill="#FEFFDD" style="stroke:#181818;stroke-width:0.5;"/><path d="M1180.7659,261.1069 L1180.7659,271.1069 L1190.7659,271.1069 L1180.7659,261.1069" fill="#FEFFDD" style="stroke:#181818;stroke-width:1;"/><text fill="#000000" font-family="sans-serif" font-size="13" lengthAdjust="spacing" textLength="342.5259" x="833.24" y="278.1738">Permet aux clients d'approvisionner leur portefeuille</text><text fill="#000000" font-family="sans-serif" font-size="13" lengthAdjust="spacing" textLength="155.0161" x="833.24" y="293.3066">et de placer des ordres.</text></g><!--entity fournisseur--><g class="entity" data-entity="fournisseur" data-source-line="31" data-uid="ent0018" id="entity_fournisseur"><rect fill="#F9F9F9" height="36.2969" rx="2.5" ry="2.5" style="stroke:#000000;stroke-width:0.5;" width="267.5156" x="1220.24" y="380.3569"/><text fill="#000000" font-family="sans-serif" font-size="14" lengthAdjust="spacing" textLength="247.5156" x="1230.24" y="403.352">Fournisseur de donn&#233;es de march&#233;</text></g><g class="entity" data-entity="GMN19" data-source-line="33" data-uid="ent0020" id="entity_GMN19"><path d="M824.34,385.9369 L824.34,411.0697 L1185.6569,411.0697 L1185.6569,395.9369 L1175.6569,385.9369 L824.34,385.9369" fill="#FEFFDD" style="stroke:#181818;stroke-width:0.5;"/><path d="M1175.6569,385.9369 L1175.6569,395.9369 L1185.6569,395.9369 L1175.6569,385.9369" fill="#FEFFDD" style="stroke:#181818;stroke-width:1;"/><text fill="#000000" font-family="sans-serif" font-size="13" lengthAdjust="spacing" textLength="340.3169" x="830.34" y="403.0038">Fournit les cotations des instruments en temps r&#233;el.</text></g><!--link GMN3 to client--><g class="link" data-entity-1="GMN3" data-entity-2="client" data-source-line="11" data-uid="lnk5" id="link_GMN3_client"><path d="M736.78,80.9369 C748.29,80.9369 759.79,80.9369 771.29,80.9369" fill="none" id="GMN3-client" style="stroke:#181818;stroke-width:1;stroke-dasharray:7,7;"/></g><!--link Op?rations Back-Office to GMN8--><g class="link" data-entity-1="Op.rations Back-Office" data-entity-2="GMN8" data-source-line="17" data-uid="lnk10" id="link_Op.rations Back-Office_GMN8"><path d="M232,299.7469 C232,320.7769 232,355.9769 232,377.8969" fill="none" id="Op&#233;rations Back-Office-GMN8" style="stroke:#181818;stroke-width:1;stroke-dasharray:7,7;"/></g><!--link Conformit?/Risque to GMN12--><g class="link" data-entity-1="Conformit..Risque" data-entity-2="GMN12" data-source-line="23" data-uid="lnk14" id="link_Conformit..Risque_GMN12"><path d="M618,299.7469 C618,323.4269 618,365.0469 618,385.4869" fill="none" id="Conformit&#233;/Risque-GMN12" style="stroke:#181818;stroke-width:1;stroke-dasharray:7,7;"/></g><!--link GMN15 to brokerx--><g class="link" data-entity-1="GMN15" data-entity-2="brokerx" data-source-line="27" data-uid="lnk17" id="link_GMN15_brokerx"><path d="M827.04,281.2369 C821.34,281.2369 815.6425,281.2369 809.945,281.2369 C807.0962,281.2369 804.2475,281.2369 801.3984,281.2369 C801.0423,281.2369 800.6862,281.2369 800.33,281.2369 C800.241,281.2369 800.152,281.2369 800.0629,281.2369" fill="none" id="GMN15-brokerx" style="stroke:#181818;stroke-width:1;stroke-dasharray:7,7;"/></g><!--link GMN19 to fournisseur--><g class="link" data-entity-1="GMN19" data-entity-2="fournisseur" data-source-line="33" data-uid="lnk21" id="link_GMN19_fournisseur"><path d="M1185.98,398.5069 C1197.24,398.5069 1208.51,398.5069 1219.78,398.5069" fill="none" id="GMN19-fournisseur" style="stroke:#181818;stroke-width:1;stroke-dasharray:7,7;"/></g><!--link client to brokerx--><g class="link" data-entity-1="client" data-entity-2="brokerx" data-source-line="36" data-uid="lnk22" id="link_client_brokerx"><path d="M792,119.2369 C792,147.5119 792,180.9569 792,213.7269" fill="none" id="client-to-brokerx" style="stroke:#181818;stroke-width:1;"/><polygon fill="#181818" points="792,219.7269,796,210.7269,792,214.7269,788,210.7269,792,219.7269" style="stroke:#181818;stroke-width:1;"/><text fill="#000000" font-family="sans-serif" font-size="13" lengthAdjust="spacing" textLength="126.4771" x="859.0061" y="162.1538">G&#233;rer son portfolio,</text><text fill="#000000" font-family="sans-serif" font-size="13" lengthAdjust="spacing" textLength="258.4893" x="793" y="177.2866">consulter les cotations en temps r&#233;el et</text><text fill="#000000" font-family="sans-serif" font-size="13" lengthAdjust="spacing" textLength="113.2739" x="865.6077" y="192.4194">placer des ordres</text></g><!--link brokerx to fournisseur--><g class="link" data-entity-1="brokerx" data-entity-2="fournisseur" data-source-line="37" data-uid="lnk23" id="link_brokerx_fournisseur"><path d="M800.0791,293.1966 C800.1074,293.2278 800.1358,293.2591 800.1643,293.2903 C800.2213,293.3528 800.2785,293.4152 800.3359,293.4776 C801.2548,294.4764 802.2336,295.4693 803.2641,296.4214 C805.325,298.3256 807.5925,300.0669 810,301.3669 C846.44,321.0569 1075.4839,357.0838 1224.4539,378.9938" fill="none" id="brokerx-to-fournisseur" style="stroke:#181818;stroke-width:1;"/><polygon fill="#181818" points="1230.39,379.8669,1222.0678,374.5998,1225.4432,379.1393,1220.9037,382.5147,1230.39,379.8669" style="stroke:#181818;stroke-width:1;"/><text fill="#000000" font-family="sans-serif" font-size="13" lengthAdjust="spacing" textLength="229.3853" x="1025" y="344.4338">Obtient les cotations en temps r&#233;el</text></g><!--SRC=[VL9DazCm3BtxLsZ2OIzqESE1GmlBiGmCCnpsuZfACNMih2plb67slt0aloD_3Ddf5sMMwQHnBEdflIUbdO-3PTj3aXy1zP-zazm7aquHHYSsRZNwqm0ihTjjcN9iLnI8uSNTw_8h4U8MURvT1aqpJyQ85orSCksGly82tdcxLT0UeKLm50NtWiPO9rhLh8B7A0tO1AuUJIH12DY9-H8XYmy-MS7CfVo8-f0z39JIz5ilSrJOVX2yDHXRAFN6d2KqXwBQOrFF-weBBdGsws4QsOgdcAhWnRhhlCEcvbLA6nAXldv_lY7dyb0LXHixg6iUUoMl5mdK5DONIWqNvhYVHfSBU2tNIA_Fz0k-aqQ39W_4qb7mb6xdb9EGAvuhYXrnxsKQNttowI4_G_5zrsbHneh-gDgyoZde6tWQ2mbrK43OjdZLzEay1A3kQ9hvY5nusxm_p2f1MzGpFVgao15vrblKO8VPXu1czc7GzK2-yEUPOTsf8z6dT1XugwZJg4LwxYsxRzDOvzYTqouMPYwMgjcH7EIMdZxgdkU-SiO8WlsGG6t0SCbZLWMBnTlJeho1veEwfzGJnVEONjv7NUMKWo1VjViRNds-Z_-8RymHl_Iw45FwhJTIQVmFjla3]--></g></svg>