<svg xmlns="http://www.w3.org/2000/svg" xmlns:xlink="http://www.w3.org/1999/xlink" contentStyleType="text/css" data-diagram-type="DESCRIPTION" height="928px" preserveAspectRatio="none" style="width:1358px;height:928px;background:#FFFFFF;" version="1.1" viewBox="0 0 1358 928" width="1358px" zoomAndPan="magnify"><defs/><g><!--cluster Machine Virtuelle--><g class="cluster" data-entity="Machine Virtuelle" data-source-line="7" data-uid="ent0005" id="cluster_Machine Virtuelle"><polygon fill="none" points="16,107.8,26,97.8,1341,97.8,1341,901.58,1331,911.58,16,911.58,16,107.8" style="stroke:#181818;stroke-width:1;"/><line style="stroke:#181818;stroke-width:1;" x1="1331" x2="1341" y1="107.8" y2="97.8"/><line style="stroke:#181818;stroke-width:1;" x1="16" x2="1331" y1="107.8" y2="107.8"/><line style="stroke:#181818;stroke-width:1;" x1="1331" x2="1331" y1="107.8" y2="911.58"/><text fill="#000000" font-family="sans-serif" font-size="14" font-weight="bold" lengthAdjust="spacing" textLength="138.5645" x="605.2178" y="123.7951">Machine Virtuelle</text></g><!--cluster lb--><g class="cluster" data-entity="lb" data-source-line="8" data-uid="ent0006" id="cluster_lb"><polygon fill="none" points="623,155.8,633,145.8,743,145.8,743,238.1,733,248.1,623,248.1,623,155.8" style="stroke:#181818;stroke-width:1;"/><line style="stroke:#181818;stroke-width:1;" x1="733" x2="743" y1="155.8" y2="145.8"/><line style="stroke:#181818;stroke-width:1;" x1="623" x2="733" y1="155.8" y2="155.8"/><line style="stroke:#181818;stroke-width:1;" x1="733" x2="733" y1="155.8" y2="248.1"/><text fill="#000000" font-family="sans-serif" font-size="14" font-weight="bold" lengthAdjust="spacing" textLength="44.9395" x="656.5303" y="171.7951">Proxy</text></g><!--cluster b--><g class="cluster" data-entity="b" data-source-line="12" data-uid="ent0008" id="cluster_b"><polygon fill="none" points="454,424.39,464,414.39,756,414.39,756,506.69,746,516.69,454,516.69,454,424.39" style="stroke:#181818;stroke-width:1;"/><line style="stroke:#181818;stroke-width:1;" x1="746" x2="756" y1="424.39" y2="414.39"/><line style="stroke:#181818;stroke-width:1;" x1="454" x2="746" y1="424.39" y2="424.39"/><line style="stroke:#181818;stroke-width:1;" x1="746" x2="746" y1="424.39" y2="516.69"/><text fill="#000000" font-family="sans-serif" font-size="14" font-weight="bold" lengthAdjust="spacing" textLength="226.584" x="487.708" y="440.3851">API Gateway / Load Balancer</text></g><!--cluster fe--><g class="cluster" data-entity="fe" data-source-line="16" data-uid="ent0010" id="cluster_fe"><polygon fill="none" points="652,282.1,662,272.1,818,272.1,818,364.39,808,374.39,652,374.39,652,282.1" style="stroke:#181818;stroke-width:1;"/><line style="stroke:#181818;stroke-width:1;" x1="808" x2="818" y1="282.1" y2="272.1"/><line style="stroke:#181818;stroke-width:1;" x1="652" x2="808" y1="282.1" y2="282.1"/><line style="stroke:#181818;stroke-width:1;" x1="808" x2="808" y1="282.1" y2="374.39"/><text fill="#000000" font-family="sans-serif" font-size="14" font-weight="bold" lengthAdjust="spacing" textLength="77.1025" x="692.4487" y="298.0951">Front end</text></g><!--cluster c--><g class="cluster" data-entity="c" data-source-line="20" data-uid="ent0012" id="cluster_c"><polygon fill="none" points="1013,574.69,1023,564.69,1309,564.69,1309,778.78,1299,788.78,1013,788.78,1013,574.69" style="stroke:#181818;stroke-width:1;"/><line style="stroke:#181818;stroke-width:1;" x1="1299" x2="1309" y1="574.69" y2="564.69"/><line style="stroke:#181818;stroke-width:1;" x1="1013" x2="1299" y1="574.69" y2="574.69"/><line style="stroke:#181818;stroke-width:1;" x1="1299" x2="1299" y1="574.69" y2="788.78"/><text fill="#000000" font-family="sans-serif" font-size="14" font-weight="bold" lengthAdjust="spacing" textLength="131.8105" x="1091.0947" y="590.6851">Matching Engine</text></g><!--cluster f--><g class="cluster" data-entity="f" data-source-line="32" data-uid="ent0021" id="cluster_f"><polygon fill="none" points="48,574.69,58,564.69,402,564.69,402,778.78,392,788.78,48,788.78,48,574.69" style="stroke:#181818;stroke-width:1;"/><line style="stroke:#181818;stroke-width:1;" x1="392" x2="402" y1="574.69" y2="564.69"/><line style="stroke:#181818;stroke-width:1;" x1="48" x2="392" y1="574.69" y2="574.69"/><line style="stroke:#181818;stroke-width:1;" x1="392" x2="392" y1="574.69" y2="788.78"/><text fill="#000000" font-family="sans-serif" font-size="14" font-weight="bold" lengthAdjust="spacing" textLength="150.8896" x="145.5552" y="590.6851">Instrument Service</text></g><!--cluster e--><g class="cluster" data-entity="e" data-source-line="45" data-uid="ent0030" id="cluster_e"><polygon fill="none" points="442,574.69,452,564.69,692,564.69,692,778.78,682,788.78,442,788.78,442,574.69" style="stroke:#181818;stroke-width:1;"/><line style="stroke:#181818;stroke-width:1;" x1="682" x2="692" y1="574.69" y2="564.69"/><line style="stroke:#181818;stroke-width:1;" x1="442" x2="682" y1="574.69" y2="574.69"/><line style="stroke:#181818;stroke-width:1;" x1="682" x2="682" y1="574.69" y2="788.78"/><text fill="#000000" font-family="sans-serif" font-size="14" font-weight="bold" lengthAdjust="spacing" textLength="131.4756" x="497.2622" y="590.6851">Portfolio Service</text></g><!--cluster mb--><g class="cluster" data-entity="mb" data-source-line="54" data-uid="ent0036" id="cluster_mb"><polygon fill="none" points="838,416.39,848,406.39,1040,406.39,1040,514.69,1030,524.69,838,524.69,838,416.39" style="stroke:#181818;stroke-width:1;"/><line style="stroke:#181818;stroke-width:1;" x1="1030" x2="1040" y1="416.39" y2="406.39"/><line style="stroke:#181818;stroke-width:1;" x1="838" x2="1030" y1="416.39" y2="416.39"/><line style="stroke:#181818;stroke-width:1;" x1="1030" x2="1030" y1="416.39" y2="524.69"/><text fill="#000000" font-family="sans-serif" font-size="14" font-weight="bold" lengthAdjust="spacing" textLength="126.834" x="871.583" y="432.3851">Message Broker</text></g><!--cluster obs--><g class="cluster" data-entity="obs" data-source-line="58" data-uid="ent0038" id="cluster_obs"><polygon fill="none" points="724,688.99,734,678.99,981,678.99,981,877.58,971,887.58,724,887.58,724,688.99" style="stroke:#181818;stroke-width:1;"/><line style="stroke:#181818;stroke-width:1;" x1="971" x2="981" y1="688.99" y2="678.99"/><line style="stroke:#181818;stroke-width:1;" x1="724" x2="971" y1="688.99" y2="688.99"/><line style="stroke:#181818;stroke-width:1;" x1="971" x2="971" y1="688.99" y2="887.58"/><text fill="#000000" font-family="sans-serif" font-size="14" font-weight="bold" lengthAdjust="spacing" textLength="105.4648" x="795.7676" y="704.9851">Observability</text></g><!--entity balancer--><g class="entity" data-entity="balancer" data-source-line="9" data-uid="ent0007" id="entity_balancer"><rect fill="#F1F1F1" height="46.2969" rx="2.5" ry="2.5" style="stroke:#181818;stroke-width:0.5;" width="85.5137" x="640.24" y="185.8"/><rect fill="#F1F1F1" height="10" style="stroke:#181818;stroke-width:0.5;" width="15" x="705.7537" y="190.8"/><rect fill="#F1F1F1" height="2" style="stroke:#181818;stroke-width:0.5;" width="4" x="703.7537" y="192.8"/><rect fill="#F1F1F1" height="2" style="stroke:#181818;stroke-width:0.5;" width="4" x="703.7537" y="196.8"/><text fill="#000000" font-family="sans-serif" font-size="14" lengthAdjust="spacing" textLength="45.5137" x="655.24" y="218.7951">NGINX</text></g><!--entity g--><g class="entity" data-entity="g" data-source-line="13" data-uid="ent0009" id="entity_g"><rect fill="#F1F1F1" height="46.2969" rx="2.5" ry="2.5" style="stroke:#181818;stroke-width:0.5;" width="99.8896" x="634.06" y="454.39"/><rect fill="#F1F1F1" height="10" style="stroke:#181818;stroke-width:0.5;" width="15" x="713.9496" y="459.39"/><rect fill="#F1F1F1" height="2" style="stroke:#181818;stroke-width:0.5;" width="4" x="711.9496" y="461.39"/><rect fill="#F1F1F1" height="2" style="stroke:#181818;stroke-width:0.5;" width="4" x="711.9496" y="465.39"/><text fill="#000000" font-family="sans-serif" font-size="14" lengthAdjust="spacing" textLength="59.8896" x="649.06" y="487.3851">KrakenD</text></g><!--entity bs--><g class="entity" data-entity="bs" data-source-line="17" data-uid="ent0011" id="entity_bs"><rect fill="#F1F1F1" height="46.2969" rx="2.5" ry="2.5" style="stroke:#181818;stroke-width:0.5;" width="134.1035" x="667.95" y="312.1"/><rect fill="#F1F1F1" height="10" style="stroke:#181818;stroke-width:0.5;" width="15" x="782.0535" y="317.1"/><rect fill="#F1F1F1" height="2" style="stroke:#181818;stroke-width:0.5;" width="4" x="780.0535" y="319.1"/><rect fill="#F1F1F1" height="2" style="stroke:#181818;stroke-width:0.5;" width="4" x="780.0535" y="323.1"/><text fill="#000000" font-family="sans-serif" font-size="14" lengthAdjust="spacing" textLength="94.1035" x="682.95" y="345.0951">Blazor Server</text></g><!--entity engine1--><g class="entity" data-entity="engine1" data-source-line="21" data-uid="ent0013" id="entity_engine1"><rect fill="#F1F1F1" height="46.2969" rx="2.5" ry="2.5" style="stroke:#181818;stroke-width:0.5;" width="96.6563" x="1056.67" y="612.69"/><rect fill="#F1F1F1" height="10" style="stroke:#181818;stroke-width:0.5;" width="15" x="1133.3263" y="617.69"/><rect fill="#F1F1F1" height="2" style="stroke:#181818;stroke-width:0.5;" width="4" x="1131.3263" y="619.69"/><rect fill="#F1F1F1" height="2" style="stroke:#181818;stroke-width:0.5;" width="4" x="1131.3263" y="623.69"/><text fill="#000000" font-family="sans-serif" font-size="14" lengthAdjust="spacing" textLength="56.6563" x="1071.67" y="645.6851">engine1</text></g><!--entity engine2--><g class="entity" data-entity="engine2" data-source-line="22" data-uid="ent0014" id="entity_engine2"><rect fill="#F1F1F1" height="46.2969" rx="2.5" ry="2.5" style="stroke:#181818;stroke-width:0.5;" width="96.6563" x="1188.67" y="612.69"/><rect fill="#F1F1F1" height="10" style="stroke:#181818;stroke-width:0.5;" width="15" x="1265.3263" y="617.69"/><rect fill="#F1F1F1" height="2" style="stroke:#181818;stroke-width:0.5;" width="4" x="1263.3263" y="619.69"/><rect fill="#F1F1F1" height="2" style="stroke:#181818;stroke-width:0.5;" width="4" x="1263.3263" y="623.69"/><text fill="#000000" font-family="sans-serif" font-size="14" lengthAdjust="spacing" textLength="56.6563" x="1203.67" y="645.6851">engine2</text></g><!--entity c1--><g class="entity" data-entity="c1" data-source-line="23" data-uid="ent0015" id="entity_c1"><path d="M1079.79,729.49 C1079.79,719.49 1108.9956,719.49 1108.9956,719.49 C1108.9956,719.49 1138.2011,719.49 1138.2011,729.49 L1138.2011,754.7869 C1138.2011,764.7869 1108.9956,764.7869 1108.9956,764.7869 C1108.9956,764.7869 1079.79,764.7869 1079.79,754.7869 L1079.79,729.49" fill="#F1F1F1" style="stroke:#181818;stroke-width:0.5;"/><path d="M1079.79,729.49 C1079.79,739.49 1108.9956,739.49 1108.9956,739.49 C1108.9956,739.49 1138.2011,739.49 1138.2011,729.49" fill="none" style="stroke:#181818;stroke-width:0.5;"/><text fill="#000000" font-family="sans-serif" font-size="14" lengthAdjust="spacing" textLength="38.4111" x="1089.79" y="756.4851">Redis</text></g><!--entity db1--><g class="entity" data-entity="db1" data-source-line="24" data-uid="ent0016" id="entity_db1"><path d="M1180.62,729.49 C1180.62,719.49 1230.9965,719.49 1230.9965,719.49 C1230.9965,719.49 1281.3729,719.49 1281.3729,729.49 L1281.3729,754.7869 C1281.3729,764.7869 1230.9965,764.7869 1230.9965,764.7869 C1230.9965,764.7869 1180.62,764.7869 1180.62,754.7869 L1180.62,729.49" fill="#F1F1F1" style="stroke:#181818;stroke-width:0.5;"/><path d="M1180.62,729.49 C1180.62,739.49 1230.9965,739.49 1230.9965,739.49 C1230.9965,739.49 1281.3729,739.49 1281.3729,729.49" fill="none" style="stroke:#181818;stroke-width:0.5;"/><text fill="#000000" font-family="sans-serif" font-size="14" lengthAdjust="spacing" textLength="80.7529" x="1190.62" y="756.4851">PostgreSQL</text></g><!--entity instrument1--><g class="entity" data-entity="instrument1" data-source-line="33" data-uid="ent0022" id="entity_instrument1"><rect fill="#F1F1F1" height="46.2969" rx="2.5" ry="2.5" style="stroke:#181818;stroke-width:0.5;" width="125.6953" x="72.15" y="612.69"/><rect fill="#F1F1F1" height="10" style="stroke:#181818;stroke-width:0.5;" width="15" x="177.8453" y="617.69"/><rect fill="#F1F1F1" height="2" style="stroke:#181818;stroke-width:0.5;" width="4" x="175.8453" y="619.69"/><rect fill="#F1F1F1" height="2" style="stroke:#181818;stroke-width:0.5;" width="4" x="175.8453" y="623.69"/><text fill="#000000" font-family="sans-serif" font-size="14" lengthAdjust="spacing" textLength="85.6953" x="87.15" y="645.6851">instrument1</text></g><!--entity instrument2--><g class="entity" data-entity="instrument2" data-source-line="34" data-uid="ent0023" id="entity_instrument2"><rect fill="#F1F1F1" height="46.2969" rx="2.5" ry="2.5" style="stroke:#181818;stroke-width:0.5;" width="125.6953" x="233.15" y="612.69"/><rect fill="#F1F1F1" height="10" style="stroke:#181818;stroke-width:0.5;" width="15" x="338.8453" y="617.69"/><rect fill="#F1F1F1" height="2" style="stroke:#181818;stroke-width:0.5;" width="4" x="336.8453" y="619.69"/><rect fill="#F1F1F1" height="2" style="stroke:#181818;stroke-width:0.5;" width="4" x="336.8453" y="623.69"/><text fill="#000000" font-family="sans-serif" font-size="14" lengthAdjust="spacing" textLength="85.6953" x="248.15" y="645.6851">instrument2</text></g><!--entity c3--><g class="entity" data-entity="c3" data-source-line="36" data-uid="ent0024" id="entity_c3"><path d="M116.79,729.49 C116.79,719.49 145.9956,719.49 145.9956,719.49 C145.9956,719.49 175.2011,719.49 175.2011,729.49 L175.2011,754.7869 C175.2011,764.7869 145.9956,764.7869 145.9956,764.7869 C145.9956,764.7869 116.79,764.7869 116.79,754.7869 L116.79,729.49" fill="#F1F1F1" style="stroke:#181818;stroke-width:0.5;"/><path d="M116.79,729.49 C116.79,739.49 145.9956,739.49 145.9956,739.49 C145.9956,739.49 175.2011,739.49 175.2011,729.49" fill="none" style="stroke:#181818;stroke-width:0.5;"/><text fill="#000000" font-family="sans-serif" font-size="14" lengthAdjust="spacing" textLength="38.4111" x="126.79" y="756.4851">Redis</text></g><!--entity db3--><g class="entity" data-entity="db3" data-source-line="37" data-uid="ent0025" id="entity_db3"><path d="M233.62,729.49 C233.62,719.49 283.9965,719.49 283.9965,719.49 C283.9965,719.49 334.3729,719.49 334.3729,729.49 L334.3729,754.7869 C334.3729,764.7869 283.9965,764.7869 283.9965,764.7869 C283.9965,764.7869 233.62,764.7869 233.62,754.7869 L233.62,729.49" fill="#F1F1F1" style="stroke:#181818;stroke-width:0.5;"/><path d="M233.62,729.49 C233.62,739.49 283.9965,739.49 283.9965,739.49 C283.9965,739.49 334.3729,739.49 334.3729,729.49" fill="none" style="stroke:#181818;stroke-width:0.5;"/><text fill="#000000" font-family="sans-serif" font-size="14" lengthAdjust="spacing" textLength="80.7529" x="243.62" y="756.4851">PostgreSQL</text></g><!--entity portfolio--><g class="entity" data-entity="portfolio" data-source-line="46" data-uid="ent0031" id="entity_portfolio"><rect fill="#F1F1F1" height="46.2969" rx="2.5" ry="2.5" style="stroke:#181818;stroke-width:0.5;" width="98.5361" x="507.73" y="612.69"/><rect fill="#F1F1F1" height="10" style="stroke:#181818;stroke-width:0.5;" width="15" x="586.2661" y="617.69"/><rect fill="#F1F1F1" height="2" style="stroke:#181818;stroke-width:0.5;" width="4" x="584.2661" y="619.69"/><rect fill="#F1F1F1" height="2" style="stroke:#181818;stroke-width:0.5;" width="4" x="584.2661" y="623.69"/><text fill="#000000" font-family="sans-serif" font-size="14" lengthAdjust="spacing" textLength="58.5361" x="522.73" y="645.6851">portfolio</text></g><!--entity c2--><g class="entity" data-entity="c2" data-source-line="47" data-uid="ent0032" id="entity_c2"><path d="M465.79,729.49 C465.79,719.49 494.9956,719.49 494.9956,719.49 C494.9956,719.49 524.2011,719.49 524.2011,729.49 L524.2011,754.7869 C524.2011,764.7869 494.9956,764.7869 494.9956,764.7869 C494.9956,764.7869 465.79,764.7869 465.79,754.7869 L465.79,729.49" fill="#F1F1F1" style="stroke:#181818;stroke-width:0.5;"/><path d="M465.79,729.49 C465.79,739.49 494.9956,739.49 494.9956,739.49 C494.9956,739.49 524.2011,739.49 524.2011,729.49" fill="none" style="stroke:#181818;stroke-width:0.5;"/><text fill="#000000" font-family="sans-serif" font-size="14" lengthAdjust="spacing" textLength="38.4111" x="475.79" y="756.4851">Redis</text></g><!--entity db2--><g class="entity" data-entity="db2" data-source-line="48" data-uid="ent0033" id="entity_db2"><path d="M559.62,729.49 C559.62,719.49 609.9965,719.49 609.9965,719.49 C609.9965,719.49 660.3729,719.49 660.3729,729.49 L660.3729,754.7869 C660.3729,764.7869 609.9965,764.7869 609.9965,764.7869 C609.9965,764.7869 559.62,764.7869 559.62,754.7869 L559.62,729.49" fill="#F1F1F1" style="stroke:#181818;stroke-width:0.5;"/><path d="M559.62,729.49 C559.62,739.49 609.9965,739.49 609.9965,739.49 C609.9965,739.49 660.3729,739.49 660.3729,729.49" fill="none" style="stroke:#181818;stroke-width:0.5;"/><text fill="#000000" font-family="sans-serif" font-size="14" lengthAdjust="spacing" textLength="80.7529" x="569.62" y="756.4851">PostgreSQL</text></g><!--entity kaf--><g class="entity" data-entity="kaf" data-source-line="55" data-uid="ent0037" id="entity_kaf"><rect fill="#F1F1F1" height="46.2969" rx="2.5" ry="2.5" style="stroke:#181818;stroke-width:0.5;" width="79.375" x="887.31" y="454.39"/><rect fill="#F1F1F1" height="10" style="stroke:#181818;stroke-width:0.5;" width="15" x="946.685" y="459.39"/><rect fill="#F1F1F1" height="2" style="stroke:#181818;stroke-width:0.5;" width="4" x="944.685" y="461.39"/><rect fill="#F1F1F1" height="2" style="stroke:#181818;stroke-width:0.5;" width="4" x="944.685" y="465.39"/><text fill="#000000" font-family="sans-serif" font-size="14" lengthAdjust="spacing" textLength="39.375" x="902.31" y="487.3851">Kafka</text></g><!--entity log--><g class="entity" data-entity="log" data-source-line="59" data-uid="ent0039" id="entity_log"><rect fill="#F1F1F1" height="46.2969" rx="2.5" ry="2.5" style="stroke:#181818;stroke-width:0.5;" width="102.7813" x="739.61" y="718.99"/><rect fill="#F1F1F1" height="10" style="stroke:#181818;stroke-width:0.5;" width="15" x="822.3913" y="723.99"/><rect fill="#F1F1F1" height="2" style="stroke:#181818;stroke-width:0.5;" width="4" x="820.3913" y="725.99"/><rect fill="#F1F1F1" height="2" style="stroke:#181818;stroke-width:0.5;" width="4" x="820.3913" y="729.99"/><text fill="#000000" font-family="sans-serif" font-size="14" lengthAdjust="spacing" textLength="62.7813" x="754.61" y="751.9851">Logstash</text></g><!--entity es--><g class="entity" data-entity="es" data-source-line="60" data-uid="ent0040" id="entity_es"><rect fill="#F1F1F1" height="46.2969" rx="2.5" ry="2.5" style="stroke:#181818;stroke-width:0.5;" width="134.0898" x="784.96" y="825.28"/><rect fill="#F1F1F1" height="10" style="stroke:#181818;stroke-width:0.5;" width="15" x="899.0498" y="830.28"/><rect fill="#F1F1F1" height="2" style="stroke:#181818;stroke-width:0.5;" width="4" x="897.0498" y="832.28"/><rect fill="#F1F1F1" height="2" style="stroke:#181818;stroke-width:0.5;" width="4" x="897.0498" y="836.28"/><text fill="#000000" font-family="sans-serif" font-size="14" lengthAdjust="spacing" textLength="94.0898" x="799.96" y="858.2751">ElasticSearch</text></g><!--entity kib--><g class="entity" data-entity="kib" data-source-line="61" data-uid="ent0041" id="entity_kib"><rect fill="#F1F1F1" height="46.2969" rx="2.5" ry="2.5" style="stroke:#181818;stroke-width:0.5;" width="87.9883" x="877.01" y="718.99"/><rect fill="#F1F1F1" height="10" style="stroke:#181818;stroke-width:0.5;" width="15" x="944.9983" y="723.99"/><rect fill="#F1F1F1" height="2" style="stroke:#181818;stroke-width:0.5;" width="4" x="942.9983" y="725.99"/><rect fill="#F1F1F1" height="2" style="stroke:#181818;stroke-width:0.5;" width="4" x="942.9983" y="729.99"/><text fill="#000000" font-family="sans-serif" font-size="14" lengthAdjust="spacing" textLength="47.9883" x="892.01" y="751.9851">Kibana</text></g><!--entity cl1--><g class="entity" data-entity="cl1" data-source-line="3" data-uid="ent0002" id="entity_cl1"><ellipse cx="609.9961" cy="14" fill="#F1F1F1" rx="8" ry="8" style="stroke:#181818;stroke-width:0.5;"/><path d="M609.9961,22 L609.9961,49 M596.9961,30 L622.9961,30 M609.9961,49 L596.9961,64 M609.9961,49 L622.9961,64" fill="none" style="stroke:#181818;stroke-width:0.5;"/><text fill="#000000" font-family="sans-serif" font-size="14" lengthAdjust="spacing" textLength="38.4521" x="590.77" y="78.4951">client</text></g><!--entity cl2--><g class="entity" data-entity="cl2" data-source-line="4" data-uid="ent0003" id="entity_cl2"><ellipse cx="682.9961" cy="14" fill="#F1F1F1" rx="8" ry="8" style="stroke:#181818;stroke-width:0.5;"/><path d="M682.9961,22 L682.9961,49 M669.9961,30 L695.9961,30 M682.9961,49 L669.9961,64 M682.9961,49 L695.9961,64" fill="none" style="stroke:#181818;stroke-width:0.5;"/><text fill="#000000" font-family="sans-serif" font-size="14" lengthAdjust="spacing" textLength="38.4521" x="663.77" y="78.4951">client</text></g><!--entity cl3--><g class="entity" data-entity="cl3" data-source-line="5" data-uid="ent0004" id="entity_cl3"><ellipse cx="755.9961" cy="14" fill="#F1F1F1" rx="8" ry="8" style="stroke:#181818;stroke-width:0.5;"/><path d="M755.9961,22 L755.9961,49 M742.9961,30 L768.9961,30 M755.9961,49 L742.9961,64 M755.9961,49 L768.9961,64" fill="none" style="stroke:#181818;stroke-width:0.5;"/><text fill="#000000" font-family="sans-serif" font-size="14" lengthAdjust="spacing" textLength="38.4521" x="736.77" y="78.4951">client</text></g><!--link engine1 to c1--><g class="link" data-entity-1="engine1" data-entity-2="c1" data-source-line="26" data-uid="lnk17" id="link_engine1_c1"><path d="M1106.0999,665.4656 C1106.7799,683.1956 1107.2608,695.7344 1107.9308,713.2644" fill="none" id="engine1-c1" style="stroke:#181818;stroke-width:1;"/><polygon fill="#181818" points="1105.87,659.47,1102.2179,668.6167,1106.0616,664.4663,1110.212,668.3101,1105.87,659.47" style="stroke:#181818;stroke-width:1;"/><polygon fill="#181818" points="1108.16,719.26,1111.8134,710.1138,1107.969,714.2636,1103.8192,710.4193,1108.16,719.26" style="stroke:#181818;stroke-width:1;"/></g><!--link engine1 to db1--><g class="link" data-entity-1="engine1" data-entity-2="db1" data-source-line="27" data-uid="lnk18" id="link_engine1_db1"><path d="M1145.2932,662.8696 C1150.6332,666.5896 1151.08,667.08 1156,670.99 C1174.99,686.06 1190.6981,700.7068 1205.2581,715.0668" fill="none" id="engine1-db1" style="stroke:#181818;stroke-width:1;"/><polygon fill="#181818" points="1140.37,659.44,1145.4683,667.8666,1144.4726,662.298,1150.0412,661.3023,1140.37,659.44" style="stroke:#181818;stroke-width:1;"/><polygon fill="#181818" points="1209.53,719.28,1205.931,710.1123,1205.9701,715.769,1200.3134,715.8081,1209.53,719.28" style="stroke:#181818;stroke-width:1;"/></g><!--link engine2 to c1--><g class="link" data-entity-1="engine2" data-entity-2="c1" data-source-line="28" data-uid="lnk19" id="link_engine2_c1"><path d="M1183.0783,657.8229 C1174.1583,662.3029 1170.63,664.9 1163,670.99 C1146.18,684.41 1134.8616,699.0875 1125.1116,714.2075" fill="none" id="engine2-c1" style="stroke:#181818;stroke-width:1;"/><polygon fill="#181818" points="1188.44,655.13,1178.6021,655.5948,1183.9719,657.3741,1182.1926,662.7438,1188.44,655.13" style="stroke:#181818;stroke-width:1;"/><polygon fill="#181818" points="1121.86,719.25,1130.0991,713.854,1124.5697,715.0479,1123.3758,709.5185,1121.86,719.25" style="stroke:#181818;stroke-width:1;"/></g><!--link engine2 to db1--><g class="link" data-entity-1="engine2" data-entity-2="db1" data-source-line="29" data-uid="lnk20" id="link_engine2_db1"><path d="M1235.3554,665.4601 C1234.3354,683.1901 1233.6151,695.7399 1232.6051,713.2699" fill="none" id="engine2-db1" style="stroke:#181818;stroke-width:1;"/><polygon fill="#181818" points="1235.7,659.47,1231.1897,668.2254,1235.4128,664.4617,1239.1765,668.6849,1235.7,659.47" style="stroke:#181818;stroke-width:1;"/><polygon fill="#181818" points="1232.26,719.26,1236.7711,710.505,1232.5476,714.2683,1228.7843,710.0448,1232.26,719.26" style="stroke:#181818;stroke-width:1;"/></g><!--link instrument1 to c3--><g class="link" data-entity-1="instrument1" data-entity-2="c3" data-source-line="39" data-uid="lnk26" id="link_instrument1_c3"><path d="M138.0193,665.4369 C139.8893,683.1669 141.2103,695.7631 143.0603,713.2931" fill="none" id="instrument1-c3" style="stroke:#181818;stroke-width:1;"/><polygon fill="#181818" points="137.39,659.47,134.3561,668.8399,137.9144,664.4424,142.3119,668.0008,137.39,659.47" style="stroke:#181818;stroke-width:1;"/><polygon fill="#181818" points="143.69,719.26,146.7234,709.8899,143.1652,714.2876,138.7675,710.7295,143.69,719.26" style="stroke:#181818;stroke-width:1;"/></g><!--link instrument1 to db3--><g class="link" data-entity-1="instrument1" data-entity-2="db3" data-source-line="40" data-uid="lnk27" id="link_instrument1_db3"><path d="M179.8466,662.4473 C186.0466,666.2173 187.19,667.06 193,670.99 C215.31,686.07 234.7233,700.9913 252.5033,715.2813" fill="none" id="instrument1-db3" style="stroke:#181818;stroke-width:1;"/><polygon fill="#181818" points="174.72,659.33,180.3317,667.4237,178.9922,661.9278,184.4882,660.5882,174.72,659.33" style="stroke:#181818;stroke-width:1;"/><polygon fill="#181818" points="257.18,719.04,252.6707,710.2841,253.2827,715.9077,247.6591,716.5197,257.18,719.04" style="stroke:#181818;stroke-width:1;"/></g><!--link instrument2 to c3--><g class="link" data-entity-1="instrument2" data-entity-2="c3" data-source-line="41" data-uid="lnk28" id="link_instrument2_c3"><path d="M230.745,662.0564 C223.755,665.5564 222.25,666.75 216,670.99 C196.05,684.49 180.937,699.681 167.757,714.771" fill="none" id="instrument2-c3" style="stroke:#181818;stroke-width:1;"/><polygon fill="#181818" points="236.11,659.37,226.2716,659.8228,231.6391,661.6086,229.8534,666.9762,236.11,659.37" style="stroke:#181818;stroke-width:1;"/><polygon fill="#181818" points="163.81,719.29,172.7432,715.1429,167.0992,715.5242,166.7178,709.8802,163.81,719.29" style="stroke:#181818;stroke-width:1;"/></g><!--link instrument2 to db3--><g class="link" data-entity-1="instrument2" data-entity-2="db3" data-source-line="42" data-uid="lnk29" id="link_instrument2_db3"><path d="M292.7142,665.4307 C290.6742,683.1607 289.2135,695.7691 287.2035,713.2991" fill="none" id="instrument2-db3" style="stroke:#181818;stroke-width:1;"/><polygon fill="#181818" points="293.4,659.47,288.3975,667.9538,292.8285,664.4372,296.345,668.8682,293.4,659.47" style="stroke:#181818;stroke-width:1;"/><polygon fill="#181818" points="286.52,719.26,291.5192,710.7742,287.0896,714.2925,283.5713,709.8629,286.52,719.26" style="stroke:#181818;stroke-width:1;"/></g><!--link portfolio to c2--><g class="link" data-entity-1="portfolio" data-entity-2="c2" data-source-line="50" data-uid="lnk34" id="link_portfolio_c2"><path d="M540.4819,664.6262 C529.9319,682.3562 521.4979,696.5737 511.0679,714.1037" fill="none" id="portfolio-c2" style="stroke:#181818;stroke-width:1;"/><polygon fill="#181818" points="543.55,659.47,535.5103,665.1589,540.9932,663.7668,542.3853,669.2497,543.55,659.47" style="stroke:#181818;stroke-width:1;"/><polygon fill="#181818" points="508,719.26,516.0394,713.5708,510.5566,714.963,509.1643,709.4802,508,719.26" style="stroke:#181818;stroke-width:1;"/></g><!--link portfolio to db2--><g class="link" data-entity-1="portfolio" data-entity-2="db2" data-source-line="51" data-uid="lnk35" id="link_portfolio_db2"><path d="M571.2182,664.819 C580.2282,682.549 587.249,696.3825 596.169,713.9125" fill="none" id="portfolio-db2" style="stroke:#181818;stroke-width:1;"/><polygon fill="#181818" points="568.5,659.47,569.0114,669.3056,570.7652,663.9275,576.1433,665.6813,568.5,659.47" style="stroke:#181818;stroke-width:1;"/><polygon fill="#181818" points="598.89,719.26,598.3734,709.4247,596.6225,714.8037,591.2434,713.0528,598.89,719.26" style="stroke:#181818;stroke-width:1;"/></g><!--link log to es--><g class="link" data-entity-1="log" data-entity-2="es" data-source-line="63" data-uid="lnk42" id="link_log_es"><path d="M804.24,765.77 C814.47,783.26 825.5294,802.1816 835.7594,819.6616" fill="none" id="log-to-es" style="stroke:#181818;stroke-width:1;"/><polygon fill="#181818" points="838.79,824.84,837.6964,815.0521,836.2645,820.5247,830.7919,819.0928,838.79,824.84" style="stroke:#181818;stroke-width:1;"/></g><!--link kib to es--><g class="link" data-entity-1="kib" data-entity-2="es" data-source-line="64" data-uid="lnk43" id="link_kib_es"><path d="M902.7177,770.7728 C891.1377,788.2628 881.8217,802.3567 870.2517,819.8367" fill="none" id="kib-es" style="stroke:#181818;stroke-width:1;"/><polygon fill="#181818" points="906.03,765.77,897.7263,771.066,903.2697,769.939,904.3967,775.4825,906.03,765.77" style="stroke:#181818;stroke-width:1;"/><polygon fill="#181818" points="866.94,824.84,875.243,819.5429,869.6997,820.6706,868.572,815.1273,866.94,824.84" style="stroke:#181818;stroke-width:1;"/></g><!--link cl1 to balancer--><g class="link" data-entity-1="cl1" data-entity-2="balancer" data-source-line="67" data-uid="lnk44" id="link_cl1_balancer"><path d="M626.75,82.11 C641.06,114.13 658.7213,153.6324 670.6213,180.2524" fill="none" id="cl1-to-balancer" style="stroke:#181818;stroke-width:1;"/><polygon fill="#181818" points="673.07,185.73,673.0487,175.8812,671.0294,181.1653,665.7453,179.146,673.07,185.73" style="stroke:#181818;stroke-width:1;"/></g><!--link cl2 to balancer--><g class="link" data-entity-1="cl2" data-entity-2="balancer" data-source-line="68" data-uid="lnk45" id="link_cl2_balancer"><path d="M683,82.11 C683,114.13 683,153.11 683,179.73" fill="none" id="cl2-to-balancer" style="stroke:#181818;stroke-width:1;"/><polygon fill="#181818" points="683,185.73,687,176.73,683,180.73,679,176.73,683,185.73" style="stroke:#181818;stroke-width:1;"/></g><!--link cl3 to balancer--><g class="link" data-entity-1="cl3" data-entity-2="balancer" data-source-line="69" data-uid="lnk46" id="link_cl3_balancer"><path d="M739.25,82.11 C724.94,114.13 707.2787,153.6324 695.3787,180.2524" fill="none" id="cl3-to-balancer" style="stroke:#181818;stroke-width:1;"/><polygon fill="#181818" points="692.93,185.73,700.2547,179.146,694.9706,181.1653,692.9513,175.8812,692.93,185.73" style="stroke:#181818;stroke-width:1;"/></g><!--link bs to g--><g class="link" data-entity-1="bs" data-entity-2="g" data-source-line="71" data-uid="lnk47" id="link_bs_g"><path d="M726.81,358.79 C717.29,384.97 703.7299,422.2611 694.2199,448.4211" fill="none" id="bs-to-g" style="stroke:#181818;stroke-width:1;"/><polygon fill="#181818" points="692.17,454.06,699.0042,446.9682,693.8783,449.3609,691.4856,444.2349,692.17,454.06" style="stroke:#181818;stroke-width:1;"/></g><!--link balancer to bs--><g class="link" data-entity-1="balancer" data-entity-2="bs" data-source-line="73" data-uid="lnk48" id="link_balancer_bs"><path d="M692.42,232.46 C701.84,254.98 713.9344,283.8948 723.3344,306.3648" fill="none" id="balancer-to-bs" style="stroke:#181818;stroke-width:1;"/><polygon fill="#181818" points="725.65,311.9,725.8668,302.0535,723.7204,307.2874,718.4865,305.1409,725.65,311.9" style="stroke:#181818;stroke-width:1;"/></g><!--link balancer to g--><g class="link" data-entity-1="balancer" data-entity-2="g" data-source-line="74" data-uid="lnk49" id="link_balancer_g"><path d="M666.58,232.5 C660.77,241.81 654.95,253 652,264.1 C638.48,314.91 643.43,330.52 652,382.39 C656.2,407.77 664.0581,429.955 671.8081,448.705" fill="none" id="balancer-to-g" style="stroke:#181818;stroke-width:1;"/><polygon fill="#181818" points="674.1,454.25,674.3588,444.4045,672.1901,449.6292,666.9654,447.4605,674.1,454.25" style="stroke:#181818;stroke-width:1;"/></g><!--link g to e--><g class="link" data-entity-1="g" data-entity-2="e" data-source-line="76" data-uid="lnk50" id="link_g_e"><path d="M684,500.93 C684,511.5675 684,525.0794 684,539.4066 C684,546.5702 684,553.9376 684,561.2514 C684,562.1657 684,563.0791 684,563.9911 C684,564.2191 684,558.4471 684,558.6749" fill="none" id="g-to-e" style="stroke:#181818;stroke-width:1;"/><polygon fill="#181818" points="684,564.6749,688,555.6749,684,559.6749,680,555.6749,684,564.6749" style="stroke:#181818;stroke-width:1;"/></g><!--link g to c--><g class="link" data-entity-1="g" data-entity-2="c" data-source-line="77" data-uid="lnk51" id="link_g_c"><path d="M732.64,501.1 C778.575,522.405 849.1475,555.135 908.9775,582.8825 C938.8925,596.7563 966.1219,609.3844 986.2431,618.7159 C996.3038,623.3817 1004.5873,627.2234 1010.5411,629.9845 C1011.2853,630.3296 1006.55,628.1336 1007.2203,628.4444" fill="none" id="g-to-c" style="stroke:#181818;stroke-width:1;"/><polygon fill="#181818" points="1012.6635,630.9688,1006.1816,623.5535,1008.1275,628.8652,1002.8159,630.811,1012.6635,630.9688" style="stroke:#181818;stroke-width:1;"/></g><!--link g to f--><g class="link" data-entity-1="g" data-entity-2="f" data-source-line="78" data-uid="lnk52" id="link_g_f"><path d="M633.82,483.44 C583.12,490.56 504.65,507.76 450,548.69 C432.295,561.95 418.6025,582.5775 409.19,600.3238 C406.8369,604.7603 404.7512,609.0168 402.9373,612.9331 C402.7106,613.4226 402.4881,613.9068 402.2698,614.3854 C402.2153,614.5051 404.6425,609.1616 404.5885,609.2805" fill="none" id="g-to-f" style="stroke:#181818;stroke-width:1;"/><polygon fill="#181818" points="402.1069,614.7433,409.4711,608.2035,404.1749,610.191,402.1874,604.8948,402.1069,614.7433" style="stroke:#181818;stroke-width:1;"/></g><!--link mb to e--><g class="link" data-entity-1="mb" data-entity-2="e" data-source-line="80" data-uid="lnk53" id="link_mb_e"><path d="M993.0285,530.0534 C992.5111,530.856 994.8066,527.186 994.2629,527.9713 C993.1757,529.5418 992.0356,531.0741 990.8408,532.554 C988.4511,535.5138 985.8425,538.2638 983,540.69 C930.845,585.21 857.5975,608.7125 796.655,621.1013 C766.1838,627.2956 738.7888,630.7116 718.6447,632.587 C708.5727,633.5248 700.3134,634.0774 694.3886,634.3996 C693.648,634.4399 698.9364,634.1765 698.2698,634.2099" fill="none" id="mb-e" style="stroke:#181818;stroke-width:1;"/><polygon fill="#181818" points="996.24,524.9853,988.044,530.4465,993.5638,529.2087,994.8016,534.7285,996.24,524.9853" style="stroke:#181818;stroke-width:1;"/><polygon fill="#181818" points="692.2773,634.51,701.4661,638.0548,697.2711,634.2599,701.066,630.0648,692.2773,634.51" style="stroke:#181818;stroke-width:1;"/></g><!--link mb to c--><g class="link" data-entity-1="mb" data-entity-2="c" data-source-line="81" data-uid="lnk54" id="link_mb_c"><path d="M1016.3374,530.7318 C1016.3865,531.8273 1016.2043,527.7583 1016.2542,528.8723 C1016.6532,537.7838 1017.0772,547.2503 1017.5013,556.7163 C1017.6073,559.0827 1017.7133,561.4492 1017.8189,563.8069 C1017.8255,563.9543 1017.5636,558.1076 1017.5702,558.2549" fill="none" id="mb-c" style="stroke:#181818;stroke-width:1;"/><polygon fill="#181818" points="1016.0691,524.7378,1012.4756,533.9077,1016.2927,529.7328,1020.4676,533.5499,1016.0691,524.7378" style="stroke:#181818;stroke-width:1;"/><polygon fill="#181818" points="1017.8387,564.2489,1021.4319,555.0789,1017.6149,559.2539,1013.4399,555.437,1017.8387,564.2489" style="stroke:#181818;stroke-width:1;"/></g><!--link e to log--><g class="link" data-entity-1="e" data-entity-2="log" data-source-line="83" data-uid="lnk55" id="link_e_log"><path d="M692.0478,644.6806 C692.1278,644.7585 692.2082,644.837 692.2892,644.916 C692.4512,645.0739 692.6152,645.2338 692.7811,645.3956 C693.1131,645.7192 693.4529,646.0505 693.8005,646.3894 C699.3609,651.8106 706.8844,659.145 715.2988,667.3475 C732.1275,683.7525 748.2232,699.4422 763.6032,714.4322" fill="none" id="e-to-log" style="stroke:#181818;stroke-width:1;"/><polygon fill="#181818" points="767.9,718.62,764.2467,709.4738,764.3194,715.1302,758.663,715.2028,767.9,718.62" style="stroke:#181818;stroke-width:1;"/></g><!--link c to log--><g class="link" data-entity-1="c" data-entity-2="log" data-source-line="84" data-uid="lnk56" id="link_c_log"><path d="M1012.9494,636.9438 C1012.8353,636.9467 1012.7201,636.9498 1012.6037,636.9529 C1012.3711,636.9591 1012.1341,636.9657 1011.8928,636.9726 C1011.4102,636.9864 1010.9104,637.0016 1010.3938,637.0183 C1008.3273,637.0851 1005.9924,637.1763 1003.4192,637.3005 C993.1266,637.7972 979.0219,638.8219 963.0362,640.9288 C931.065,645.1425 891.57,653.685 860,670.99 C838.73,682.64 823.5656,698.2628 810.9556,714.0428" fill="none" id="c-to-log" style="stroke:#181818;stroke-width:1;"/><polygon fill="#181818" points="807.21,718.73,815.9533,714.1962,810.3314,714.824,809.7036,709.202,807.21,718.73" style="stroke:#181818;stroke-width:1;"/></g><!--link f to log--><g class="link" data-entity-1="f" data-entity-2="log" data-source-line="85" data-uid="lnk57" id="link_f_log"><path d="M402.0173,640.9759 C402.2538,641.0927 402.4947,641.2114 402.7399,641.3317 C403.7204,641.8131 404.7694,642.3214 405.8793,642.8507 C408.0991,643.9094 410.5625,645.0519 413.21,646.23 C423.8,650.9425 437.335,656.225 450,658.99 C548.27,680.43 579.92,641.22 676,670.99 C708.39,681.02 736.1639,698.6116 758.3439,715.0916" fill="none" id="f-to-log" style="stroke:#181818;stroke-width:1;"/><polygon fill="#181818" points="763.16,718.67,758.3215,710.0916,759.1466,715.688,753.5502,716.5131,763.16,718.67" style="stroke:#181818;stroke-width:1;"/></g><!--SRC=[ZPHDRzim38Rl_XL2xiKGvJeKMB2k29QssG8Ckz8oxGgHfK1IjcL3__lq5TUgvQ0-62Bvy9NqmgOvS7a43JqnzYpGlJLdzjIBgW9cbIPCS9IMW76hPI572xbLLKdL85ay07lc4iaFhkq9XS05-LSHzyJoJgi_vuNl4NKg-8Uf_gYaLriytcyUVmQY1W6IeGxKIpLI-RJRa7km-1lEv0FPAcZ8Ei6niopzLSC1vUU0T5FLBrev2cKJW1RB8ci1VztbzwX_NNOpKwq7iDw7Zjp9pjaHE5OMn40i0vBMynWTONJ06h1GWt7xViU6cxZRib3UAMCxZVjlsy0qzR8QgBGt-NXpSplkplA-8o_GcGQQDsJkRAJxw4wzlvVtaRDeK5isY0zqD6aKNyVf6vnMrnrRlSUnrQl8w239XDLypNTEY_HA8yqRCmTtIjjM2Quo0sS-sUC53j0GNJU3liUCaQE3RBeHdQluhkd_WiP0XsIjrI7zLltSNmpj0G9nW7Qgz5GRvmZKN70R9usgJLbfgpfZmJp7UQIw4dCdm5ZEzWYQHH1DyLIy1fcEnUjNMvmiyRSUTRbwT0ApmU66RI2piUUcRIcvofCXwsxfarsAKYs2PffBN3hTQCr6wpP2_UN0MSHY4GDviOzbKJj4B_y1]--></g></svg>