<svg xmlns="http://www.w3.org/2000/svg" xmlns:xlink="http://www.w3.org/1999/xlink" contentStyleType="text/css" data-diagram-type="CLASS" height="287px" preserveAspectRatio="none" style="width:2253px;height:287px;background:#FFFFFF;" version="1.1" viewBox="0 0 2253 287" width="2253px" zoomAndPan="magnify"><title>BrokerX - Vue de d&#233;veloppement</title><defs/><g><g class="title" data-source-line="1"><text fill="#000000" font-family="sans-serif" font-size="14" font-weight="bold" lengthAdjust="spacing" textLength="261.6523" x="988.6738" y="22.9951">BrokerX - Vue de d&#233;veloppement</text></g><!--cluster BrokerX--><g class="cluster" data-entity="BrokerX" data-source-line="3" data-uid="ent0002" id="cluster_BrokerX"><path d="M8.5,43.2969 L73.1973,43.2969 A3.75,3.75 0 0 1 75.6973,45.7969 L82.6973,65.5938 L2243.5,65.5938 A2.5,2.5 0 0 1 2246,68.0938 L2246,278.3869 A2.5,2.5 0 0 1 2243.5,280.8869 L8.5,280.8869 A2.5,2.5 0 0 1 6,278.3869 L6,45.7969 A2.5,2.5 0 0 1 8.5,43.2969" fill="none" style="stroke:#000000;stroke-width:1.5;"/><line style="stroke:#000000;stroke-width:1.5;" x1="6" x2="82.6973" y1="65.5938" y2="65.5938"/><text fill="#000000" font-family="sans-serif" font-size="14" font-weight="bold" lengthAdjust="spacing" textLength="63.6973" x="10" y="58.292">BrokerX</text></g><!--cluster Adapters--><g class="cluster" data-entity="Adapters" data-source-line="4" data-uid="ent0003" id="cluster_Adapters"><path d="M32.5,129.2969 L105.25,129.2969 A3.75,3.75 0 0 1 107.75,131.7969 L114.75,151.5938 L171.5,151.5938 A2.5,2.5 0 0 1 174,154.0938 L174,230.3869 A2.5,2.5 0 0 1 171.5,232.8869 L32.5,232.8869 A2.5,2.5 0 0 1 30,230.3869 L30,131.7969 A2.5,2.5 0 0 1 32.5,129.2969" fill="none" style="stroke:#000000;stroke-width:1.5;"/><line style="stroke:#000000;stroke-width:1.5;" x1="30" x2="114.75" y1="151.5938" y2="151.5938"/><text fill="#000000" font-family="sans-serif" font-size="14" font-weight="bold" lengthAdjust="spacing" textLength="71.75" x="34" y="144.292">Adapters</text></g><!--cluster Domain--><g class="cluster" data-entity="Domain" data-source-line="8" data-uid="ent0005" id="cluster_Domain"><path d="M200.5,129.2969 L261.54,129.2969 A3.75,3.75 0 0 1 264.04,131.7969 L271.04,151.5938 L521.5,151.5938 A2.5,2.5 0 0 1 524,154.0938 L524,230.3869 A2.5,2.5 0 0 1 521.5,232.8869 L200.5,232.8869 A2.5,2.5 0 0 1 198,230.3869 L198,131.7969 A2.5,2.5 0 0 1 200.5,129.2969" fill="none" style="stroke:#000000;stroke-width:1.5;"/><line style="stroke:#000000;stroke-width:1.5;" x1="198" x2="271.04" y1="151.5938" y2="151.5938"/><text fill="#000000" font-family="sans-serif" font-size="14" font-weight="bold" lengthAdjust="spacing" textLength="60.04" x="202" y="144.292">Domain</text></g><!--cluster InstrumentService--><g class="cluster" data-entity="InstrumentService" data-source-line="15" data-uid="ent0009" id="cluster_InstrumentService"><path d="M550.5,86.2969 L697.5156,86.2969 A3.75,3.75 0 0 1 700.0156,88.7969 L707.0156,108.5938 L1087.5,108.5938 A2.5,2.5 0 0 1 1090,111.0938 L1090,254.3869 A2.5,2.5 0 0 1 1087.5,256.8869 L550.5,256.8869 A2.5,2.5 0 0 1 548,254.3869 L548,88.7969 A2.5,2.5 0 0 1 550.5,86.2969" fill="none" style="stroke:#000000;stroke-width:1.5;"/><line style="stroke:#000000;stroke-width:1.5;" x1="548" x2="707.0156" y1="108.5938" y2="108.5938"/><text fill="#000000" font-family="sans-serif" font-size="14" font-weight="bold" lengthAdjust="spacing" textLength="146.0156" x="552" y="101.292">InstrumentService</text></g><!--cluster Adapters--><g class="cluster" data-entity="Adapters" data-source-line="16" data-uid="ent0010" id="cluster_Adapters"><path d="M574.5,129.2969 L647.25,129.2969 A3.75,3.75 0 0 1 649.75,131.7969 L656.75,151.5938 L713.5,151.5938 A2.5,2.5 0 0 1 716,154.0938 L716,230.3869 A2.5,2.5 0 0 1 713.5,232.8869 L574.5,232.8869 A2.5,2.5 0 0 1 572,230.3869 L572,131.7969 A2.5,2.5 0 0 1 574.5,129.2969" fill="none" style="stroke:#000000;stroke-width:1.5;"/><line style="stroke:#000000;stroke-width:1.5;" x1="572" x2="656.75" y1="151.5938" y2="151.5938"/><text fill="#000000" font-family="sans-serif" font-size="14" font-weight="bold" lengthAdjust="spacing" textLength="71.75" x="576" y="144.292">Adapters</text></g><!--cluster Domain--><g class="cluster" data-entity="Domain" data-source-line="20" data-uid="ent0012" id="cluster_Domain"><path d="M742.5,129.2969 L803.54,129.2969 A3.75,3.75 0 0 1 806.04,131.7969 L813.04,151.5938 L1063.5,151.5938 A2.5,2.5 0 0 1 1066,154.0938 L1066,230.3869 A2.5,2.5 0 0 1 1063.5,232.8869 L742.5,232.8869 A2.5,2.5 0 0 1 740,230.3869 L740,131.7969 A2.5,2.5 0 0 1 742.5,129.2969" fill="none" style="stroke:#000000;stroke-width:1.5;"/><line style="stroke:#000000;stroke-width:1.5;" x1="740" x2="813.04" y1="151.5938" y2="151.5938"/><text fill="#000000" font-family="sans-serif" font-size="14" font-weight="bold" lengthAdjust="spacing" textLength="60.04" x="744" y="144.292">Domain</text></g><!--cluster PortfolioService--><g class="cluster" data-entity="PortfolioService" data-source-line="27" data-uid="ent0016" id="cluster_PortfolioService"><path d="M1116.5,86.2969 L1244.1016,86.2969 A3.75,3.75 0 0 1 1246.6016,88.7969 L1253.6016,108.5938 L1653.5,108.5938 A2.5,2.5 0 0 1 1656,111.0938 L1656,254.3869 A2.5,2.5 0 0 1 1653.5,256.8869 L1116.5,256.8869 A2.5,2.5 0 0 1 1114,254.3869 L1114,88.7969 A2.5,2.5 0 0 1 1116.5,86.2969" fill="none" style="stroke:#000000;stroke-width:1.5;"/><line style="stroke:#000000;stroke-width:1.5;" x1="1114" x2="1253.6016" y1="108.5938" y2="108.5938"/><text fill="#000000" font-family="sans-serif" font-size="14" font-weight="bold" lengthAdjust="spacing" textLength="126.6016" x="1118" y="101.292">PortfolioService</text></g><!--cluster Adapters--><g class="cluster" data-entity="Adapters" data-source-line="28" data-uid="ent0017" id="cluster_Adapters"><path d="M1140.5,129.2969 L1213.25,129.2969 A3.75,3.75 0 0 1 1215.75,131.7969 L1222.75,151.5938 L1279.5,151.5938 A2.5,2.5 0 0 1 1282,154.0938 L1282,230.3869 A2.5,2.5 0 0 1 1279.5,232.8869 L1140.5,232.8869 A2.5,2.5 0 0 1 1138,230.3869 L1138,131.7969 A2.5,2.5 0 0 1 1140.5,129.2969" fill="none" style="stroke:#000000;stroke-width:1.5;"/><line style="stroke:#000000;stroke-width:1.5;" x1="1138" x2="1222.75" y1="151.5938" y2="151.5938"/><text fill="#000000" font-family="sans-serif" font-size="14" font-weight="bold" lengthAdjust="spacing" textLength="71.75" x="1142" y="144.292">Adapters</text></g><!--cluster Domain--><g class="cluster" data-entity="Domain" data-source-line="32" data-uid="ent0019" id="cluster_Domain"><path d="M1308.5,129.2969 L1369.54,129.2969 A3.75,3.75 0 0 1 1372.04,131.7969 L1379.04,151.5938 L1629.5,151.5938 A2.5,2.5 0 0 1 1632,154.0938 L1632,230.3869 A2.5,2.5 0 0 1 1629.5,232.8869 L1308.5,232.8869 A2.5,2.5 0 0 1 1306,230.3869 L1306,131.7969 A2.5,2.5 0 0 1 1308.5,129.2969" fill="none" style="stroke:#000000;stroke-width:1.5;"/><line style="stroke:#000000;stroke-width:1.5;" x1="1306" x2="1379.04" y1="151.5938" y2="151.5938"/><text fill="#000000" font-family="sans-serif" font-size="14" font-weight="bold" lengthAdjust="spacing" textLength="60.04" x="1310" y="144.292">Domain</text></g><!--cluster MatchingEngine--><g class="cluster" data-entity="MatchingEngine" data-source-line="39" data-uid="ent0023" id="cluster_MatchingEngine"><path d="M1682.5,86.2969 L1810.4365,86.2969 A3.75,3.75 0 0 1 1812.9365,88.7969 L1819.9365,108.5938 L2219.5,108.5938 A2.5,2.5 0 0 1 2222,111.0938 L2222,254.3869 A2.5,2.5 0 0 1 2219.5,256.8869 L1682.5,256.8869 A2.5,2.5 0 0 1 1680,254.3869 L1680,88.7969 A2.5,2.5 0 0 1 1682.5,86.2969" fill="none" style="stroke:#000000;stroke-width:1.5;"/><line style="stroke:#000000;stroke-width:1.5;" x1="1680" x2="1819.9365" y1="108.5938" y2="108.5938"/><text fill="#000000" font-family="sans-serif" font-size="14" font-weight="bold" lengthAdjust="spacing" textLength="126.9365" x="1684" y="101.292">MatchingEngine</text></g><!--cluster Adapters--><g class="cluster" data-entity="Adapters" data-source-line="40" data-uid="ent0024" id="cluster_Adapters"><path d="M1706.5,129.2969 L1779.25,129.2969 A3.75,3.75 0 0 1 1781.75,131.7969 L1788.75,151.5938 L1845.5,151.5938 A2.5,2.5 0 0 1 1848,154.0938 L1848,230.3869 A2.5,2.5 0 0 1 1845.5,232.8869 L1706.5,232.8869 A2.5,2.5 0 0 1 1704,230.3869 L1704,131.7969 A2.5,2.5 0 0 1 1706.5,129.2969" fill="none" style="stroke:#000000;stroke-width:1.5;"/><line style="stroke:#000000;stroke-width:1.5;" x1="1704" x2="1788.75" y1="151.5938" y2="151.5938"/><text fill="#000000" font-family="sans-serif" font-size="14" font-weight="bold" lengthAdjust="spacing" textLength="71.75" x="1708" y="144.292">Adapters</text></g><!--cluster Domain--><g class="cluster" data-entity="Domain" data-source-line="44" data-uid="ent0026" id="cluster_Domain"><path d="M1874.5,129.2969 L1935.54,129.2969 A3.75,3.75 0 0 1 1938.04,131.7969 L1945.04,151.5938 L2195.5,151.5938 A2.5,2.5 0 0 1 2198,154.0938 L2198,230.3869 A2.5,2.5 0 0 1 2195.5,232.8869 L1874.5,232.8869 A2.5,2.5 0 0 1 1872,230.3869 L1872,131.7969 A2.5,2.5 0 0 1 1874.5,129.2969" fill="none" style="stroke:#000000;stroke-width:1.5;"/><line style="stroke:#000000;stroke-width:1.5;" x1="1872" x2="1945.04" y1="151.5938" y2="151.5938"/><text fill="#000000" font-family="sans-serif" font-size="14" font-weight="bold" lengthAdjust="spacing" textLength="60.04" x="1876" y="144.292">Domain</text></g><path d="M48.46,164.2969 L141.5332,164.2969 A3.75,3.75 0 0 1 144.0332,166.7969 L151.0332,186.5938 L155.5332,186.5938 A2.5,2.5 0 0 1 158.0332,189.0938 L158.0332,214.3906 A2.5,2.5 0 0 1 155.5332,216.8906 L48.46,216.8906 A2.5,2.5 0 0 1 45.96,214.3906 L45.96,166.7969 A2.5,2.5 0 0 1 48.46,164.2969" fill="#F1F1F1" style="stroke:#181818;stroke-width:0.5;"/><line style="stroke:#181818;stroke-width:0.5;" x1="45.96" x2="151.0332" y1="186.5938" y2="186.5938"/><text fill="#000000" font-family="sans-serif" font-size="14" font-weight="bold" lengthAdjust="spacing" textLength="92.0732" x="49.96" y="179.292">Persistence</text><path d="M216.4,164.2969 L273.5982,164.2969 A3.75,3.75 0 0 1 276.0982,166.7969 L283.0982,186.5938 L287.5982,186.5938 A2.5,2.5 0 0 1 290.0982,189.0938 L290.0982,214.3906 A2.5,2.5 0 0 1 287.5982,216.8906 L216.4,216.8906 A2.5,2.5 0 0 1 213.9,214.3906 L213.9,166.7969 A2.5,2.5 0 0 1 216.4,164.2969" fill="#F1F1F1" style="stroke:#181818;stroke-width:0.5;"/><line style="stroke:#181818;stroke-width:0.5;" x1="213.9" x2="283.0982" y1="186.5938" y2="186.5938"/><text fill="#000000" font-family="sans-serif" font-size="14" font-weight="bold" lengthAdjust="spacing" textLength="56.1982" x="217.9" y="179.292">Models</text><path d="M327.6,164.2969 L370.4086,164.2969 A3.75,3.75 0 0 1 372.9086,166.7969 L379.9086,186.5938 L384.4086,186.5938 A2.5,2.5 0 0 1 386.9086,189.0938 L386.9086,214.3906 A2.5,2.5 0 0 1 384.4086,216.8906 L327.6,216.8906 A2.5,2.5 0 0 1 325.1,214.3906 L325.1,166.7969 A2.5,2.5 0 0 1 327.6,164.2969" fill="#F1F1F1" style="stroke:#181818;stroke-width:0.5;"/><line style="stroke:#181818;stroke-width:0.5;" x1="325.1" x2="379.9086" y1="186.5938" y2="186.5938"/><text fill="#000000" font-family="sans-serif" font-size="14" font-weight="bold" lengthAdjust="spacing" textLength="41.8086" x="329.1" y="179.292">Ports</text><path d="M424.23,164.2969 L491.7642,164.2969 A3.75,3.75 0 0 1 494.2642,166.7969 L501.2642,186.5938 L505.7642,186.5938 A2.5,2.5 0 0 1 508.2642,189.0938 L508.2642,214.3906 A2.5,2.5 0 0 1 505.7642,216.8906 L424.23,216.8906 A2.5,2.5 0 0 1 421.73,214.3906 L421.73,166.7969 A2.5,2.5 0 0 1 424.23,164.2969" fill="#F1F1F1" style="stroke:#181818;stroke-width:0.5;"/><line style="stroke:#181818;stroke-width:0.5;" x1="421.73" x2="501.2642" y1="186.5938" y2="186.5938"/><text fill="#000000" font-family="sans-serif" font-size="14" font-weight="bold" lengthAdjust="spacing" textLength="66.5342" x="425.73" y="179.292">Services</text><path d="M590.46,164.2969 L683.5332,164.2969 A3.75,3.75 0 0 1 686.0332,166.7969 L693.0332,186.5938 L697.5332,186.5938 A2.5,2.5 0 0 1 700.0332,189.0938 L700.0332,214.3906 A2.5,2.5 0 0 1 697.5332,216.8906 L590.46,216.8906 A2.5,2.5 0 0 1 587.96,214.3906 L587.96,166.7969 A2.5,2.5 0 0 1 590.46,164.2969" fill="#F1F1F1" style="stroke:#181818;stroke-width:0.5;"/><line style="stroke:#181818;stroke-width:0.5;" x1="587.96" x2="693.0332" y1="186.5938" y2="186.5938"/><text fill="#000000" font-family="sans-serif" font-size="14" font-weight="bold" lengthAdjust="spacing" textLength="92.0732" x="591.96" y="179.292">Persistence</text><path d="M758.4,164.2969 L815.5982,164.2969 A3.75,3.75 0 0 1 818.0982,166.7969 L825.0982,186.5938 L829.5982,186.5938 A2.5,2.5 0 0 1 832.0982,189.0938 L832.0982,214.3906 A2.5,2.5 0 0 1 829.5982,216.8906 L758.4,216.8906 A2.5,2.5 0 0 1 755.9,214.3906 L755.9,166.7969 A2.5,2.5 0 0 1 758.4,164.2969" fill="#F1F1F1" style="stroke:#181818;stroke-width:0.5;"/><line style="stroke:#181818;stroke-width:0.5;" x1="755.9" x2="825.0982" y1="186.5938" y2="186.5938"/><text fill="#000000" font-family="sans-serif" font-size="14" font-weight="bold" lengthAdjust="spacing" textLength="56.1982" x="759.9" y="179.292">Models</text><path d="M869.6,164.2969 L912.4086,164.2969 A3.75,3.75 0 0 1 914.9086,166.7969 L921.9086,186.5938 L926.4086,186.5938 A2.5,2.5 0 0 1 928.9086,189.0938 L928.9086,214.3906 A2.5,2.5 0 0 1 926.4086,216.8906 L869.6,216.8906 A2.5,2.5 0 0 1 867.1,214.3906 L867.1,166.7969 A2.5,2.5 0 0 1 869.6,164.2969" fill="#F1F1F1" style="stroke:#181818;stroke-width:0.5;"/><line style="stroke:#181818;stroke-width:0.5;" x1="867.1" x2="921.9086" y1="186.5938" y2="186.5938"/><text fill="#000000" font-family="sans-serif" font-size="14" font-weight="bold" lengthAdjust="spacing" textLength="41.8086" x="871.1" y="179.292">Ports</text><path d="M966.23,164.2969 L1033.7642,164.2969 A3.75,3.75 0 0 1 1036.2642,166.7969 L1043.2642,186.5938 L1047.7642,186.5938 A2.5,2.5 0 0 1 1050.2642,189.0938 L1050.2642,214.3906 A2.5,2.5 0 0 1 1047.7642,216.8906 L966.23,216.8906 A2.5,2.5 0 0 1 963.73,214.3906 L963.73,166.7969 A2.5,2.5 0 0 1 966.23,164.2969" fill="#F1F1F1" style="stroke:#181818;stroke-width:0.5;"/><line style="stroke:#181818;stroke-width:0.5;" x1="963.73" x2="1043.2642" y1="186.5938" y2="186.5938"/><text fill="#000000" font-family="sans-serif" font-size="14" font-weight="bold" lengthAdjust="spacing" textLength="66.5342" x="967.73" y="179.292">Services</text><path d="M1156.46,164.2969 L1249.5332,164.2969 A3.75,3.75 0 0 1 1252.0332,166.7969 L1259.0332,186.5938 L1263.5332,186.5938 A2.5,2.5 0 0 1 1266.0332,189.0938 L1266.0332,214.3906 A2.5,2.5 0 0 1 1263.5332,216.8906 L1156.46,216.8906 A2.5,2.5 0 0 1 1153.96,214.3906 L1153.96,166.7969 A2.5,2.5 0 0 1 1156.46,164.2969" fill="#F1F1F1" style="stroke:#181818;stroke-width:0.5;"/><line style="stroke:#181818;stroke-width:0.5;" x1="1153.96" x2="1259.0332" y1="186.5938" y2="186.5938"/><text fill="#000000" font-family="sans-serif" font-size="14" font-weight="bold" lengthAdjust="spacing" textLength="92.0732" x="1157.96" y="179.292">Persistence</text><path d="M1324.4,164.2969 L1381.5982,164.2969 A3.75,3.75 0 0 1 1384.0982,166.7969 L1391.0982,186.5938 L1395.5982,186.5938 A2.5,2.5 0 0 1 1398.0982,189.0938 L1398.0982,214.3906 A2.5,2.5 0 0 1 1395.5982,216.8906 L1324.4,216.8906 A2.5,2.5 0 0 1 1321.9,214.3906 L1321.9,166.7969 A2.5,2.5 0 0 1 1324.4,164.2969" fill="#F1F1F1" style="stroke:#181818;stroke-width:0.5;"/><line style="stroke:#181818;stroke-width:0.5;" x1="1321.9" x2="1391.0982" y1="186.5938" y2="186.5938"/><text fill="#000000" font-family="sans-serif" font-size="14" font-weight="bold" lengthAdjust="spacing" textLength="56.1982" x="1325.9" y="179.292">Models</text><path d="M1435.6,164.2969 L1478.4086,164.2969 A3.75,3.75 0 0 1 1480.9086,166.7969 L1487.9086,186.5938 L1492.4086,186.5938 A2.5,2.5 0 0 1 1494.9086,189.0938 L1494.9086,214.3906 A2.5,2.5 0 0 1 1492.4086,216.8906 L1435.6,216.8906 A2.5,2.5 0 0 1 1433.1,214.3906 L1433.1,166.7969 A2.5,2.5 0 0 1 1435.6,164.2969" fill="#F1F1F1" style="stroke:#181818;stroke-width:0.5;"/><line style="stroke:#181818;stroke-width:0.5;" x1="1433.1" x2="1487.9086" y1="186.5938" y2="186.5938"/><text fill="#000000" font-family="sans-serif" font-size="14" font-weight="bold" lengthAdjust="spacing" textLength="41.8086" x="1437.1" y="179.292">Ports</text><path d="M1532.23,164.2969 L1599.7642,164.2969 A3.75,3.75 0 0 1 1602.2642,166.7969 L1609.2642,186.5938 L1613.7642,186.5938 A2.5,2.5 0 0 1 1616.2642,189.0938 L1616.2642,214.3906 A2.5,2.5 0 0 1 1613.7642,216.8906 L1532.23,216.8906 A2.5,2.5 0 0 1 1529.73,214.3906 L1529.73,166.7969 A2.5,2.5 0 0 1 1532.23,164.2969" fill="#F1F1F1" style="stroke:#181818;stroke-width:0.5;"/><line style="stroke:#181818;stroke-width:0.5;" x1="1529.73" x2="1609.2642" y1="186.5938" y2="186.5938"/><text fill="#000000" font-family="sans-serif" font-size="14" font-weight="bold" lengthAdjust="spacing" textLength="66.5342" x="1533.73" y="179.292">Services</text><path d="M1722.46,164.2969 L1815.5332,164.2969 A3.75,3.75 0 0 1 1818.0332,166.7969 L1825.0332,186.5938 L1829.5332,186.5938 A2.5,2.5 0 0 1 1832.0332,189.0938 L1832.0332,214.3906 A2.5,2.5 0 0 1 1829.5332,216.8906 L1722.46,216.8906 A2.5,2.5 0 0 1 1719.96,214.3906 L1719.96,166.7969 A2.5,2.5 0 0 1 1722.46,164.2969" fill="#F1F1F1" style="stroke:#181818;stroke-width:0.5;"/><line style="stroke:#181818;stroke-width:0.5;" x1="1719.96" x2="1825.0332" y1="186.5938" y2="186.5938"/><text fill="#000000" font-family="sans-serif" font-size="14" font-weight="bold" lengthAdjust="spacing" textLength="92.0732" x="1723.96" y="179.292">Persistence</text><path d="M1890.4,164.2969 L1947.5982,164.2969 A3.75,3.75 0 0 1 1950.0982,166.7969 L1957.0982,186.5938 L1961.5982,186.5938 A2.5,2.5 0 0 1 1964.0982,189.0938 L1964.0982,214.3906 A2.5,2.5 0 0 1 1961.5982,216.8906 L1890.4,216.8906 A2.5,2.5 0 0 1 1887.9,214.3906 L1887.9,166.7969 A2.5,2.5 0 0 1 1890.4,164.2969" fill="#F1F1F1" style="stroke:#181818;stroke-width:0.5;"/><line style="stroke:#181818;stroke-width:0.5;" x1="1887.9" x2="1957.0982" y1="186.5938" y2="186.5938"/><text fill="#000000" font-family="sans-serif" font-size="14" font-weight="bold" lengthAdjust="spacing" textLength="56.1982" x="1891.9" y="179.292">Models</text><path d="M2001.6,164.2969 L2044.4086,164.2969 A3.75,3.75 0 0 1 2046.9086,166.7969 L2053.9086,186.5938 L2058.4086,186.5938 A2.5,2.5 0 0 1 2060.9086,189.0938 L2060.9086,214.3906 A2.5,2.5 0 0 1 2058.4086,216.8906 L2001.6,216.8906 A2.5,2.5 0 0 1 1999.1,214.3906 L1999.1,166.7969 A2.5,2.5 0 0 1 2001.6,164.2969" fill="#F1F1F1" style="stroke:#181818;stroke-width:0.5;"/><line style="stroke:#181818;stroke-width:0.5;" x1="1999.1" x2="2053.9086" y1="186.5938" y2="186.5938"/><text fill="#000000" font-family="sans-serif" font-size="14" font-weight="bold" lengthAdjust="spacing" textLength="41.8086" x="2003.1" y="179.292">Ports</text><path d="M2098.23,164.2969 L2165.7642,164.2969 A3.75,3.75 0 0 1 2168.2642,166.7969 L2175.2642,186.5938 L2179.7642,186.5938 A2.5,2.5 0 0 1 2182.2642,189.0938 L2182.2642,214.3906 A2.5,2.5 0 0 1 2179.7642,216.8906 L2098.23,216.8906 A2.5,2.5 0 0 1 2095.73,214.3906 L2095.73,166.7969 A2.5,2.5 0 0 1 2098.23,164.2969" fill="#F1F1F1" style="stroke:#181818;stroke-width:0.5;"/><line style="stroke:#181818;stroke-width:0.5;" x1="2095.73" x2="2175.2642" y1="186.5938" y2="186.5938"/><text fill="#000000" font-family="sans-serif" font-size="14" font-weight="bold" lengthAdjust="spacing" textLength="66.5342" x="2099.73" y="179.292">Services</text><!--SRC=[tOz12i8m44NtESNGlTv1qOMBWY28sv2ETMYQ2Scq6-c1F8SNCvLQBEe1x93LlFa_F26n2El05OOJBE3O81JftMyjMlOUQtIYbDUcqYL2DbncS5MGPjol2kq5Gto12TmdG57G6KoyUnvqQbgmuLgJ-nhFkK0Rn-IqceFyG0SCBHcCRrzsdoRBdOiIcbvp2Cp8hMyuioMUdrgknLp8bLjNaljRiGS0]--></g></svg>