<svg xmlns="http://www.w3.org/2000/svg" xmlns:xlink="http://www.w3.org/1999/xlink" contentStyleType="text/css" data-diagram-type="STATE" height="1260px" preserveAspectRatio="none" style="width:1287px;height:1260px;background:#FFFFFF;" version="1.1" viewBox="0 0 1287 1260" width="1287px" zoomAndPan="magnify"><defs/><g><g id="1"><rect fill="#F1F1F1" height="50.2656" rx="12.5" ry="12.5" style="stroke:#181818;stroke-width:0.5;" width="121.2676" x="964.29" y="87"/><line style="stroke:#181818;stroke-width:0.5;" x1="964.29" x2="1085.5576" y1="113.2969" y2="113.2969"/><text fill="#000000" font-family="sans-serif" font-size="14" lengthAdjust="spacing" textLength="8.9072" x="1020.4702" y="104.9951">1</text><text fill="#000000" font-family="sans-serif" font-size="12" lengthAdjust="spacing" textLength="101.2676" x="969.29" y="129.4355">PLACING_ORDER</text></g><g id="2"><rect fill="#F1F1F1" height="50.2656" rx="12.5" ry="12.5" style="stroke:#181818;stroke-width:0.5;" width="156.5293" x="837.66" y="214.26"/><line style="stroke:#181818;stroke-width:0.5;" x1="837.66" x2="994.1893" y1="240.5569" y2="240.5569"/><text fill="#000000" font-family="sans-serif" font-size="14" lengthAdjust="spacing" textLength="8.9072" x="911.471" y="232.2551">2</text><text fill="#000000" font-family="sans-serif" font-size="12" lengthAdjust="spacing" textLength="136.5293" x="842.66" y="256.6955">FINDING_BEST_MATCH</text></g><g id="3"><rect fill="#F1F1F1" height="50.2656" rx="12.5" ry="12.5" style="stroke:#181818;stroke-width:0.5;" width="142.1797" x="578.84" y="341.53"/><line style="stroke:#181818;stroke-width:0.5;" x1="578.84" x2="721.0197" y1="367.8269" y2="367.8269"/><text fill="#000000" font-family="sans-serif" font-size="14" lengthAdjust="spacing" textLength="8.9072" x="645.4762" y="359.5251">3</text><text fill="#000000" font-family="sans-serif" font-size="12" lengthAdjust="spacing" textLength="122.1797" x="583.84" y="383.9655">VALIDATING_ORDER</text></g><g id="4"><rect fill="#F1F1F1" height="50.2656" rx="12.5" ry="12.5" style="stroke:#181818;stroke-width:0.5;" width="174.002" x="395.93" y="468.8"/><line style="stroke:#181818;stroke-width:0.5;" x1="395.93" x2="569.932" y1="495.0969" y2="495.0969"/><text fill="#000000" font-family="sans-serif" font-size="14" lengthAdjust="spacing" textLength="8.9072" x="478.4774" y="486.7951">4</text><text fill="#000000" font-family="sans-serif" font-size="12" lengthAdjust="spacing" textLength="154.002" x="400.93" y="511.2355">CREATING_TRANSACTION</text></g><g id="5"><rect fill="#F1F1F1" height="50.2656" rx="12.5" ry="12.5" style="stroke:#181818;stroke-width:0.5;" width="144.8867" x="231.48" y="596.06"/><line style="stroke:#181818;stroke-width:0.5;" x1="231.48" x2="376.3667" y1="622.3569" y2="622.3569"/><text fill="#000000" font-family="sans-serif" font-size="14" lengthAdjust="spacing" textLength="8.9072" x="299.4697" y="614.0551">5</text><text fill="#000000" font-family="sans-serif" font-size="12" lengthAdjust="spacing" textLength="124.8867" x="236.48" y="638.4955">UPDATING_BALANCE</text></g><g id="6"><rect fill="#F1F1F1" height="50.2656" rx="12.5" ry="12.5" style="stroke:#181818;stroke-width:0.5;" width="145.7422" x="52.06" y="723.33"/><line style="stroke:#181818;stroke-width:0.5;" x1="52.06" x2="197.8022" y1="749.6269" y2="749.6269"/><text fill="#000000" font-family="sans-serif" font-size="14" lengthAdjust="spacing" textLength="8.9072" x="120.4775" y="741.3251">6</text><text fill="#000000" font-family="sans-serif" font-size="12" lengthAdjust="spacing" textLength="125.7422" x="57.06" y="765.7655">UPDATING_POSITION</text></g><g id="7"><rect fill="#F1F1F1" height="50.2656" rx="12.5" ry="12.5" style="stroke:#181818;stroke-width:0.5;" width="187.1035" x="584.38" y="1105.12"/><line style="stroke:#181818;stroke-width:0.5;" x1="584.38" x2="771.4835" y1="1131.4169" y2="1131.4169"/><text fill="#000000" font-family="sans-serif" font-size="14" lengthAdjust="spacing" textLength="8.9072" x="673.4781" y="1123.1151">7</text><text fill="#000000" font-family="sans-serif" font-size="12" lengthAdjust="spacing" textLength="167.1035" x="589.38" y="1147.5555">COMPLETING_ORDER_SAGA</text></g><g id="10"><rect fill="#F1F1F1" height="50.2656" rx="12.5" ry="12.5" style="stroke:#181818;stroke-width:0.5;" width="172.584" x="217.64" y="977.86"/><line style="stroke:#181818;stroke-width:0.5;" x1="217.64" x2="390.224" y1="1004.1569" y2="1004.1569"/><text fill="#000000" font-family="sans-serif" font-size="14" lengthAdjust="spacing" textLength="17.8145" x="295.0248" y="995.8551">10</text><text fill="#000000" font-family="sans-serif" font-size="12" lengthAdjust="spacing" textLength="152.584" x="222.64" y="1020.2955">DELETING_TRANSACTION</text></g><g id="11"><rect fill="#F1F1F1" height="50.2656" rx="12.5" ry="12.5" style="stroke:#181818;stroke-width:0.5;" width="151.4668" x="83.19" y="850.59"/><line style="stroke:#181818;stroke-width:0.5;" x1="83.19" x2="234.6568" y1="876.8869" y2="876.8869"/><text fill="#000000" font-family="sans-serif" font-size="14" lengthAdjust="spacing" textLength="17.8145" x="150.0162" y="868.5851">11</text><text fill="#000000" font-family="sans-serif" font-size="12" lengthAdjust="spacing" textLength="131.4668" x="88.19" y="893.0255">REVERTING_BALANCE</text></g><ellipse cx="1024.93" cy="16" fill="#222222" rx="10" ry="10" style="stroke:#222222;stroke-width:1;"/><ellipse cx="677.93" cy="1243.39" fill="none" rx="11" ry="11" style="stroke:#222222;stroke-width:1;"/><ellipse cx="677.93" cy="1243.39" fill="#222222" rx="6" ry="6" style="stroke:#222222;stroke-width:1;"/><!--link *start* to 1--><g class="link" data-entity-1=".start." data-entity-2="1" data-source-line="11" data-uid="lnk3" id="link_.start._1"><path d="M1024.93,26.37 C1024.93,40.32 1024.93,61.02 1024.93,80.75" fill="none" id="*start*-to-1" style="stroke:#181818;stroke-width:1;"/><polygon fill="#181818" points="1024.93,86.75,1028.93,77.75,1024.93,81.75,1020.93,77.75,1024.93,86.75" style="stroke:#181818;stroke-width:1;"/></g><!--link 1 to 2--><g class="link" data-entity-1="1" data-entity-2="2" data-source-line="13" data-uid="lnk4" id="link_1_2"><path d="M1003.65,137.58 C984.45,159.65 960.279,187.434 941.089,209.484" fill="none" id="1-to-2" style="stroke:#181818;stroke-width:1;"/><polygon fill="#181818" points="937.15,214.01,946.0758,209.847,940.4325,210.2383,940.0411,204.595,937.15,214.01" style="stroke:#181818;stroke-width:1;"/><text fill="#000000" font-family="sans-serif" font-size="13" lengthAdjust="spacing" textLength="79.9868" x="978.93" y="180.3269">OrderPlaced</text></g><!--link 2 to 3--><g class="link" data-entity-1="2" data-entity-2="3" data-source-line="14" data-uid="lnk5" id="link_2_3"><path d="M837.19,257.64 C805.58,266.28 769.48,278.41 738.93,294.53 C715.31,306.99 696.3019,322.0675 679.4019,337.3375" fill="none" id="2-to-3" style="stroke:#181818;stroke-width:1;"/><polygon fill="#181818" points="674.95,341.36,684.3095,338.2942,678.6599,338.0079,678.9462,332.3583,674.95,341.36" style="stroke:#181818;stroke-width:1;"/><text fill="#000000" font-family="sans-serif" font-size="13" lengthAdjust="spacing" textLength="79.8281" x="739.93" y="307.5969">MatchFound</text></g><!--link 3 to 4--><g class="link" data-entity-1="3" data-entity-2="4" data-source-line="15" data-uid="lnk6" id="link_3_4"><path d="M578.59,389.02 C559.36,397.13 539.58,407.87 523.93,421.8 C509.65,434.49 501.5586,447.9114 494.7286,463.0414" fill="none" id="3-to-4" style="stroke:#181818;stroke-width:1;"/><polygon fill="#181818" points="492.26,468.51,499.6087,461.9528,494.3172,463.9528,492.3172,458.6613,492.26,468.51" style="stroke:#181818;stroke-width:1;"/><text fill="#000000" font-family="sans-serif" font-size="13" lengthAdjust="spacing" textLength="98.8203" x="524.93" y="434.8669">OrderValidated</text></g><!--link 4 to 5--><g class="link" data-entity-1="4" data-entity-2="5" data-source-line="16" data-uid="lnk7" id="link_4_5"><path d="M395.6,509.91 C370.71,517.92 345.38,530.22 326.93,549.06 C314.76,561.49 310.08,574.4926 307.38,589.6826" fill="none" id="4-to-5" style="stroke:#181818;stroke-width:1;"/><polygon fill="#181818" points="306.33,595.59,311.8433,587.4289,307.205,590.6672,303.9668,586.0289,306.33,595.59" style="stroke:#181818;stroke-width:1;"/><text fill="#000000" font-family="sans-serif" font-size="13" lengthAdjust="spacing" textLength="128.0132" x="327.93" y="562.1269">TransactionCreated</text></g><!--link 5 to 6--><g class="link" data-entity-1="5" data-entity-2="6" data-source-line="17" data-uid="lnk8" id="link_5_6"><path d="M231.29,641.71 C209.63,649.94 186.9,661.21 168.93,676.33 C154.03,688.85 145.3249,702.3644 137.8749,717.5344" fill="none" id="5-to-6" style="stroke:#181818;stroke-width:1;"/><polygon fill="#181818" points="135.23,722.92,142.7877,716.6049,137.4341,718.432,135.6069,713.0784,135.23,722.92" style="stroke:#181818;stroke-width:1;"/><text fill="#000000" font-family="sans-serif" font-size="13" lengthAdjust="spacing" textLength="107.1802" x="169.93" y="689.3969">BalanceUpdated</text></g><!--link 6 to 7--><g class="link" data-entity-1="6" data-entity-2="7" data-source-line="18" data-uid="lnk9" id="link_6_7"><path d="M100.4,773.82 C64.59,812.43 6,889.3 41.93,947.86 C83.12,1014.99 129.04,993.8 199.93,1028.12 C244.85,1049.88 254.06,1060.98 301.93,1075.12 C395.69,1102.84 500.9724,1116.0918 578.0224,1122.7718" fill="none" id="6-to-7" style="stroke:#181818;stroke-width:1;"/><polygon fill="#181818" points="584,1123.29,575.3791,1118.5276,579.0187,1122.8581,574.6881,1126.4977,584,1123.29" style="stroke:#181818;stroke-width:1;"/><text fill="#000000" font-family="sans-serif" font-size="13" lengthAdjust="spacing" textLength="106.4121" x="42.93" y="943.9269">PositionUpdated</text></g><!--link 1 to 7--><g class="link" data-entity-1="1" data-entity-2="7" data-source-line="20" data-uid="lnk10" id="link_1_7"><path d="M1065.82,137.76 C1096.75,159.82 1133.93,195.3 1133.93,238.4 C1133.93,238.4 1133.93,238.4 1133.93,1003.99 C1133.93,1078.39 911.3249,1109.6817 777.8349,1121.9317" fill="none" id="1-to-7" style="stroke:#181818;stroke-width:1;"/><polygon fill="#181818" points="771.86,1122.48,781.1879,1125.6408,776.8391,1122.0231,780.4568,1117.6743,771.86,1122.48" style="stroke:#181818;stroke-width:1;"/><text fill="#000000" font-family="sans-serif" font-size="13" lengthAdjust="spacing" textLength="144.6504" x="1134.93" y="625.7569">OrderPlacementFailed</text></g><!--link 2 to 7--><g class="link" data-entity-1="2" data-entity-2="7" data-source-line="21" data-uid="lnk11" id="link_2_7"><path d="M892.23,265.02 C871.92,288.78 845.93,326.8 845.93,365.66 C845.93,365.66 845.93,365.66 845.93,1003.99 C845.93,1053.11 804.703,1082.8462 760.533,1102.2562" fill="none" id="2-to-7" style="stroke:#181818;stroke-width:1;"/><polygon fill="#181818" points="755.04,1104.67,764.8888,1104.7112,759.6175,1102.6585,761.6703,1097.3872,755.04,1104.67" style="stroke:#181818;stroke-width:1;"/><text fill="#000000" font-family="sans-serif" font-size="13" lengthAdjust="spacing" textLength="97.5063" x="846.93" y="689.3969">NoMatchFound</text></g><!--link 7 to 2--><g class="link" data-entity-1="7" data-entity-2="2" data-source-line="28" data-uid="lnk16" id="link_7_2"><path d="M771.71,1109.85 C861.99,1088.4 984.93,1050.62 984.93,1003.99 C984.93,365.66 984.93,365.66 984.93,365.66 C984.93,326.68 962.851,292.9843 942.771,269.2043" fill="none" id="7-to-2" style="stroke:#181818;stroke-width:1;"/><polygon fill="#181818" points="938.9,264.62,941.6503,274.0771,942.1258,268.4402,947.7627,268.9157,938.9,264.62" style="stroke:#181818;stroke-width:1;"/><text fill="#000000" font-family="sans-serif" font-size="13" lengthAdjust="spacing" textLength="124.4775" x="985.93" y="689.3969">OrderPartiallyFilled</text></g><!--link 3 to 7--><g class="link" data-entity-1="3" data-entity-2="7" data-source-line="22" data-uid="lnk12" id="link_3_7"><path d="M649.93,392.15 C649.93,417.4 649.93,457.92 649.93,492.93 C649.93,492.93 649.93,492.93 649.93,685.83 C649.93,727.72 669.669,1011.8748 675.779,1098.7448" fill="none" id="3-to-7" style="stroke:#181818;stroke-width:1;"/><polygon fill="#181818" points="676.2,1104.73,679.5587,1095.4715,675.8492,1099.7423,671.5784,1096.0328,676.2,1104.73" style="stroke:#181818;stroke-width:1;"/><text fill="#000000" font-family="sans-serif" font-size="13" lengthAdjust="spacing" textLength="141.2925" x="655.93" y="753.0269">OrderValidationFailed</text></g><!--link 4 to 7--><g class="link" data-entity-1="4" data-entity-2="7" data-source-line="24" data-uid="lnk13" id="link_4_7"><path d="M482.93,519.41 C482.93,544.66 482.93,585.18 482.93,620.19 C482.93,620.19 482.93,620.19 482.93,1003.99 C482.93,1056.8 528.5439,1086.3323 578.5039,1104.5723" fill="none" id="4-to-7" style="stroke:#181818;stroke-width:1;"/><polygon fill="#181818" points="584.14,1106.63,577.0576,1099.786,579.4432,1104.9152,574.314,1107.3009,584.14,1106.63" style="stroke:#181818;stroke-width:1;"/><text fill="#000000" font-family="sans-serif" font-size="13" lengthAdjust="spacing" textLength="170.4854" x="483.93" y="816.6569">TransactionCreationFailed</text></g><!--link 5 to 10--><g class="link" data-entity-1="5" data-entity-2="10" data-source-line="25" data-uid="lnk14" id="link_5_10"><path d="M303.19,646.63 C302.14,684.07 300.41,757.9 300.93,820.59 C301.39,876.81 302.5442,936.8213 303.2742,971.6413" fill="none" id="5-to-10" style="stroke:#181818;stroke-width:1;"/><polygon fill="#181818" points="303.4,977.64,307.2105,968.5581,303.2952,972.6411,299.2122,968.7258,303.4,977.64" style="stroke:#181818;stroke-width:1;"/><text fill="#000000" font-family="sans-serif" font-size="13" lengthAdjust="spacing" textLength="137.8457" x="301.93" y="816.6569">BalanceUpdateFailed</text></g><!--link 6 to 11--><g class="link" data-entity-1="6" data-entity-2="11" data-source-line="26" data-uid="lnk15" id="link_6_11"><path d="M119.88,774.02 C117.99,787.97 117.29,805.6 121.93,820.59 C125.19,831.14 127.7795,836.6042 134.0995,845.3642" fill="none" id="6-to-11" style="stroke:#181818;stroke-width:1;"/><polygon fill="#181818" points="137.61,850.23,135.5881,840.5909,134.6846,846.1751,129.1003,845.2716,137.61,850.23" style="stroke:#181818;stroke-width:1;"/><text fill="#000000" font-family="sans-serif" font-size="13" lengthAdjust="spacing" textLength="137.0776" x="122.93" y="816.6569">PositionUpdateFailed</text></g><!--link 11 to 10--><g class="link" data-entity-1="11" data-entity-2="10" data-source-line="30" data-uid="lnk17" id="link_11_10"><path d="M154.92,901.07 C153.83,915.97 155.06,934.66 164.93,947.86 C177.87,965.18 191.5855,974.7407 211.7055,982.7507" fill="none" id="11-to-10" style="stroke:#181818;stroke-width:1;"/><polygon fill="#181818" points="217.28,984.97,210.3978,977.9248,212.6346,983.1206,207.4388,985.3574,217.28,984.97" style="stroke:#181818;stroke-width:1;"/><text fill="#000000" font-family="sans-serif" font-size="13" lengthAdjust="spacing" textLength="111.2617" x="165.93" y="943.9269">BalanceReverted</text></g><!--link 10 to 7--><g class="link" data-entity-1="10" data-entity-2="7" data-source-line="31" data-uid="lnk18" id="link_10_7"><path d="M302.87,1028.49 C303.6,1044.05 307.33,1063.39 319.93,1075.12 C357.25,1109.88 485.0669,1122.0326 578.0769,1126.4926" fill="none" id="10-to-7" style="stroke:#181818;stroke-width:1;"/><polygon fill="#181818" points="584.07,1126.78,575.2719,1122.3535,579.0757,1126.5405,574.8887,1130.3443,584.07,1126.78" style="stroke:#181818;stroke-width:1;"/><text fill="#000000" font-family="sans-serif" font-size="13" lengthAdjust="spacing" textLength="135.6938" x="320.93" y="1071.1869">TransactionReverted</text></g><!--link 7 to *end*--><g class="link" data-entity-1="7" data-entity-2=".end." data-source-line="33" data-uid="lnk20" id="link_7_.end."><path d="M677.93,1155.65 C677.93,1179.54 677.93,1208.81 677.93,1226.09" fill="none" id="7-to-*end*" style="stroke:#181818;stroke-width:1;"/><polygon fill="#181818" points="677.93,1232.09,681.93,1223.09,677.93,1227.09,673.93,1223.09,677.93,1232.09" style="stroke:#181818;stroke-width:1;"/><text fill="#000000" font-family="sans-serif" font-size="13" lengthAdjust="spacing" textLength="103.3398" x="678.93" y="1198.4569">SagaCompleted</text></g><!--SRC=[RP5VQuCm5CNVyoby7XIMhQtGXq4QOoTObMZxCaQvQDY4L8jrWttxvSRqZstVvFpElJddIhs5byMCHybgbyf0IF9Yb31A0bIM8YzsQrRmT_9gv2sBeu0L5-_KY5oAGIeaItB6YoXDoCo0JUQyInQpX0iolnQpD8-irSSTwJgBnMNnBcShHkYpGO5mu7ezfOP8iHLoz03vUFhq9fCtZn92xGUMIRjATPc6KbMc7AhOPGrz-HssFqrbgg4uFLcteEiAUkEUMe1TYWwQ8vHztJQyKnREBCHEIz3Gb6fp6ARc5c2jh3tME78YBfG_2hLNJHz2hS_f42VjNJx_9f_PwyPSJlz1pejfY6jFEihhy13QtdMS-lI6VtDFwFeQjFuBQsqvfNSFIFMhEknjn0S1pzZjnf-ty7Bu0jxk3rePz0y0]--></g></svg>