<svg xmlns="http://www.w3.org/2000/svg" xmlns:xlink="http://www.w3.org/1999/xlink" contentStyleType="text/css" data-diagram-type="DESCRIPTION" height="709px" preserveAspectRatio="none" style="width:1677px;height:709px;background:#FFFFFF;" version="1.1" viewBox="0 0 1677 709" width="1677px" zoomAndPan="magnify"><defs/><g><!--cluster L?gende--><g class="cluster" data-entity="L.gende" data-source-line="3" data-uid="ent0002" id="cluster_L.gende"><rect fill="none" height="196" rx="2.5" ry="2.5" style="stroke:#181818;stroke-width:1;" width="176.15" x="7" y="239.32"/><text fill="#000000" font-family="sans-serif" font-size="14" font-weight="bold" lengthAdjust="spacing" textLength="67.416" x="61.367" y="254.3151">L&#233;gende</text></g><!--cluster Syst?me--><g class="cluster" data-entity="Syst.me" data-source-line="10" data-uid="ent0006" id="cluster_Syst.me"><path d="M218.65,299.32 L287.4625,299.32 A3.75,3.75 0 0 1 289.9625,301.82 L296.9625,321.6169 L1668.28,321.6169 A2.5,2.5 0 0 1 1670.78,324.1169 L1670.78,591.82 A2.5,2.5 0 0 1 1668.28,594.32 L218.65,594.32 A2.5,2.5 0 0 1 216.15,591.82 L216.15,301.82 A2.5,2.5 0 0 1 218.65,299.32" fill="none" style="stroke:#000000;stroke-width:1.5;"/><line style="stroke:#000000;stroke-width:1.5;" x1="216.15" x2="296.9625" y1="321.6169" y2="321.6169"/><text fill="#000000" font-family="sans-serif" font-size="14" font-weight="bold" lengthAdjust="spacing" textLength="67.8125" x="220.15" y="314.3151">Syst&#232;me</text></g><!--entity L1--><g class="entity" data-entity="L1" data-source-line="4" data-uid="ent0003" id="entity_L1"><ellipse cx="95.0729" cy="351.67" fill="#F1F1F1" rx="8" ry="8" style="stroke:#181818;stroke-width:0.5;"/><path d="M95.0729,359.67 L95.0729,386.67 M82.0729,367.67 L108.0729,367.67 M95.0729,386.67 L82.0729,401.67 M95.0729,386.67 L108.0729,401.67" fill="none" style="stroke:#181818;stroke-width:0.5;"/><text fill="#000000" font-family="sans-serif" font-size="14" lengthAdjust="spacing" textLength="46.0059" x="72.07" y="416.1651">Acteur</text></g><!--entity L2--><g class="entity" data-entity="L2" data-source-line="5" data-uid="ent0004" id="entity_L2"><ellipse cx="95.0731" cy="291.3246" fill="#F1F1F1" rx="72.0731" ry="16.8146" style="stroke:#181818;stroke-width:0.5;"/><text fill="#000000" font-family="sans-serif" font-size="14" lengthAdjust="spacing" textLength="111.5557" x="39.2953" y="295.9731">Cas d'utilisation</text></g><!--entity UC01--><g class="entity" data-entity="UC01" data-source-line="11" data-uid="ent0007" id="entity_UC01"><ellipse cx="807.3516" cy="548.3163" fill="#F1F1F1" rx="131.8316" ry="28.7663" style="stroke:#181818;stroke-width:0.5;"/><text fill="#000000" font-family="sans-serif" font-size="14" lengthAdjust="spacing" textLength="42.8887" x="785.9073" y="536.6679">UC-01</text><text fill="#000000" font-family="sans-serif" font-size="14" lengthAdjust="spacing" textLength="244.4395" x="685.1319" y="552.9648">Inscription &amp; V&#233;rification d&#8217;identit&#233;</text></g><!--entity UC02--><g class="entity" data-entity="UC02" data-source-line="12" data-uid="ent0008" id="entity_UC02"><ellipse cx="383.3303" cy="458.3156" fill="#F1F1F1" rx="104.5603" ry="23.5456" style="stroke:#181818;stroke-width:0.5;"/><text fill="#000000" font-family="sans-serif" font-size="14" lengthAdjust="spacing" textLength="42.8887" x="361.886" y="451.0301">UC-02</text><text fill="#000000" font-family="sans-serif" font-size="14" lengthAdjust="spacing" textLength="161.1162" x="302.7722" y="467.327">Authentification &amp; MFA</text></g><!--entity UC03--><g class="entity" data-entity="UC03" data-source-line="13" data-uid="ent0009" id="entity_UC03"><ellipse cx="1523.5211" cy="513.3222" fill="#F1F1F1" rx="131.2611" ry="28.6522" style="stroke:#181818;stroke-width:0.5;"/><text fill="#000000" font-family="sans-serif" font-size="14" lengthAdjust="spacing" textLength="42.8887" x="1502.0767" y="501.6738">UC-03</text><text fill="#000000" font-family="sans-serif" font-size="14" lengthAdjust="spacing" textLength="243.2363" x="1401.9029" y="517.9707">Approvisionnement du portefeuille</text></g><!--entity UC04--><g class="entity" data-entity="UC04" data-source-line="14" data-uid="ent0010" id="entity_UC04"><ellipse cx="383.3281" cy="547.3156" fill="#F1F1F1" rx="141.2281" ry="30.6456" style="stroke:#181818;stroke-width:0.5;"/><text fill="#000000" font-family="sans-serif" font-size="14" lengthAdjust="spacing" textLength="42.8887" x="361.8838" y="535.6672">UC-04</text><text fill="#000000" font-family="sans-serif" font-size="14" lengthAdjust="spacing" textLength="264.1748" x="251.2407" y="551.9641">Abonnement aux donn&#233;es du march&#233;</text></g><!--entity UC05--><g class="entity" data-entity="UC05" data-source-line="15" data-uid="ent0011" id="entity_UC05"><ellipse cx="1178.7212" cy="401.3189" fill="#F1F1F1" rx="98.5412" ry="23.5689" style="stroke:#181818;stroke-width:0.5;"/><text fill="#000000" font-family="sans-serif" font-size="14" lengthAdjust="spacing" textLength="42.8887" x="1157.2768" y="394.0717">UC-05</text><text fill="#000000" font-family="sans-serif" font-size="14" lengthAdjust="spacing" textLength="151.3955" x="1103.0234" y="410.3686">Placement d&#8217;un ordre</text></g><!--entity UC06--><g class="entity" data-entity="UC06" data-source-line="16" data-uid="ent0012" id="entity_UC06"><ellipse cx="807.3479" cy="363.3216" fill="#F1F1F1" rx="130.9079" ry="28.5816" style="stroke:#181818;stroke-width:0.5;"/><text fill="#000000" font-family="sans-serif" font-size="14" lengthAdjust="spacing" textLength="42.8887" x="785.9035" y="351.6731">UC-06</text><text fill="#000000" font-family="sans-serif" font-size="14" lengthAdjust="spacing" textLength="242.4912" x="686.1023" y="367.97">Modification/Annulation d'un ordre</text></g><!--entity UC07--><g class="entity" data-entity="UC07" data-source-line="17" data-uid="ent0013" id="entity_UC07"><ellipse cx="807.3508" cy="454.3202" fill="#F1F1F1" rx="127.0508" ry="27.8102" style="stroke:#181818;stroke-width:0.5;"/><text fill="#000000" font-family="sans-serif" font-size="14" lengthAdjust="spacing" textLength="42.8887" x="785.9064" y="442.6804">UC-07</text><text fill="#000000" font-family="sans-serif" font-size="14" lengthAdjust="spacing" textLength="234.3086" x="690.1965" y="458.9773">Appariement interne &amp; Ex&#233;cution</text></g><!--entity UC08--><g class="entity" data-entity="UC08" data-source-line="18" data-uid="ent0014" id="entity_UC08"><ellipse cx="383.3255" cy="367.3171" fill="#F1F1F1" rx="151.1855" ry="32.6371" style="stroke:#181818;stroke-width:0.5;"/><text fill="#000000" font-family="sans-serif" font-size="14" lengthAdjust="spacing" textLength="42.8887" x="361.8812" y="355.6687">UC-08</text><text fill="#000000" font-family="sans-serif" font-size="14" lengthAdjust="spacing" textLength="284.9492" x="240.8509" y="371.9655">Confirmation d&#8217;ex&#233;cution &amp; Notifications</text></g><!--entity client--><g class="entity" data-entity="client" data-source-line="8" data-uid="ent0005" id="entity_client"><ellipse cx="95.0747" cy="462.67" fill="#F1F1F1" rx="8" ry="8" style="stroke:#181818;stroke-width:0.5;"/><path d="M95.0747,470.67 L95.0747,497.67 M82.0747,478.67 L108.0747,478.67 M95.0747,497.67 L82.0747,512.67 M95.0747,497.67 L108.0747,512.67" fill="none" style="stroke:#181818;stroke-width:0.5;"/><text fill="#000000" font-family="sans-serif" font-size="14" lengthAdjust="spacing" textLength="91.6494" x="49.25" y="527.1651">AC01 - Client</text></g><!--link client to UC01--><g class="link" data-entity-1="client" data-entity-2="UC01" data-source-line="21" data-uid="lnk15" id="link_client_UC01"><path d="M125.24,530.92 C145.56,554.43 174.91,582.37 208.15,595.32 C388.44,665.59 616.3196,610.9502 730.9396,574.6802" fill="none" id="client-to-UC01" style="stroke:#181818;stroke-width:1;"/><polygon fill="#181818" points="736.66,572.87,726.8726,571.7716,731.893,574.3785,729.2861,579.3989,736.66,572.87" style="stroke:#181818;stroke-width:1;"/></g><!--link client to UC02--><g class="link" data-entity-1="client" data-entity-2="UC02" data-source-line="22" data-uid="lnk16" id="link_client_UC02"><path d="M141.12,486.97 C180.87,482.25 234.1219,475.9281 283.9319,470.0081" fill="none" id="client-to-UC02" style="stroke:#181818;stroke-width:1;"/><polygon fill="#181818" points="289.89,469.3,280.4808,466.3901,284.9249,469.8901,281.425,474.3342,289.89,469.3" style="stroke:#181818;stroke-width:1;"/></g><!--link client to UC03--><g class="link" data-entity-1="client" data-entity-2="UC03" data-source-line="23" data-uid="lnk17" id="link_client_UC03"><path d="M117.45,530.79 C137.21,563.2 169.34,608.73 208.15,637.32 C274.67,686.33 299.7,702.32 382.33,702.32 C382.33,702.32 382.33,702.32 1179.72,702.32 C1311.22,702.32 1435.4508,598.4943 1490.3908,545.7743" fill="none" id="client-to-UC03" style="stroke:#181818;stroke-width:1;"/><polygon fill="#181818" points="1494.72,541.62,1485.4567,544.9653,1491.1123,545.0819,1490.9957,550.7375,1494.72,541.62" style="stroke:#181818;stroke-width:1;"/></g><!--link client to UC04--><g class="link" data-entity-1="client" data-entity-2="UC04" data-source-line="24" data-uid="lnk18" id="link_client_UC04"><path d="M141.12,500.97 C177.33,507.93 223.7878,516.858 270.4778,525.828" fill="none" id="client-to-UC04" style="stroke:#181818;stroke-width:1;"/><polygon fill="#181818" points="276.37,526.96,268.2863,521.3338,271.4598,526.0167,266.777,529.1902,276.37,526.96" style="stroke:#181818;stroke-width:1;"/></g><!--link client to UC05--><g class="link" data-entity-1="client" data-entity-2="UC05" data-source-line="25" data-uid="lnk19" id="link_client_UC05"><path d="M141.11,476.08 C159.71,467.01 179.59,453.74 191.15,435.32 C212.14,401.85 178.93,284.92 208.15,258.32 C485.23,6 998.1029,290.567 1137.3729,375.837" fill="none" id="client-to-UC05" style="stroke:#181818;stroke-width:1;"/><polygon fill="#181818" points="1142.49,378.97,1136.9031,370.8591,1138.2258,376.3592,1132.7257,377.6819,1142.49,378.97" style="stroke:#181818;stroke-width:1;"/></g><!--link client to UC06--><g class="link" data-entity-1="client" data-entity-2="UC06" data-source-line="26" data-uid="lnk20" id="link_client_UC06"><path d="M141.15,475.54 C159.52,466.42 179.21,453.27 191.15,435.32 C220.49,391.2 168.1,352.01 208.15,317.32 C364.42,181.94 632.5563,281.6586 747.5663,334.4086" fill="none" id="client-to-UC06" style="stroke:#181818;stroke-width:1;"/><polygon fill="#181818" points="753.02,336.91,746.507,329.5221,748.4752,334.8255,743.1718,336.7937,753.02,336.91" style="stroke:#181818;stroke-width:1;"/></g><!--link UC02 to UC01--><g class="link" data-entity-1="UC02" data-entity-2="UC01" data-source-line="28" data-uid="lnk21" id="link_UC02_UC01"><path d="M460.27,474.51 C530.75,489.54 630.042,510.7183 705.942,526.9083" fill="none" id="UC02-to-UC01" style="stroke:#181818;stroke-width:1;stroke-dasharray:7,7;"/><polygon fill="#181818" points="711.81,528.16,703.8425,522.3705,706.92,527.1169,702.1736,530.1945,711.81,528.16" style="stroke:#181818;stroke-width:1;"/><text fill="#000000" font-family="sans-serif" font-size="13" lengthAdjust="spacing" textLength="53.752" x="578.52" y="494.3869">&#171;Inclus&#187;</text></g><!--link UC05 to UC03--><g class="link" data-entity-1="UC05" data-entity-2="UC03" data-source-line="29" data-uid="lnk22" id="link_UC05_UC03"><path d="M1238.26,420.45 C1296.49,439.47 1380.2967,466.8566 1443.2867,487.4366" fill="none" id="UC05-to-UC03" style="stroke:#181818;stroke-width:1;stroke-dasharray:7,7;"/><polygon fill="#181818" points="1448.99,489.3,1441.6773,482.7027,1444.2372,487.7472,1439.1928,490.3071,1448.99,489.3" style="stroke:#181818;stroke-width:1;"/><text fill="#000000" font-family="sans-serif" font-size="13" lengthAdjust="spacing" textLength="53.752" x="1308.26" y="440.3869">&#171;Inclus&#187;</text></g><!--link UC06 to UC05--><g class="link" data-entity-1="UC06" data-entity-2="UC05" data-source-line="30" data-uid="lnk23" id="link_UC06_UC05"><path d="M926.49,375.47 C978.63,380.84 1032.9616,386.4253 1081.4116,391.4153" fill="none" id="UC06-to-UC05" style="stroke:#181818;stroke-width:1;stroke-dasharray:7,7;"/><polygon fill="#181818" points="1087.38,392.03,1078.8372,387.129,1082.4063,391.5177,1078.0176,395.0869,1087.38,392.03" style="stroke:#181818;stroke-width:1;"/><text fill="#000000" font-family="sans-serif" font-size="13" lengthAdjust="spacing" textLength="53.752" x="983.18" y="376.3869">&#171;Inclus&#187;</text></g><!--link UC07 to UC05--><g class="link" data-entity-1="UC07" data-entity-2="UC05" data-source-line="31" data-uid="lnk24" id="link_UC07_UC05"><path d="M914.69,439.06 C971.49,430.91 1034.4808,421.872 1087.5308,414.262" fill="none" id="UC07-to-UC05" style="stroke:#181818;stroke-width:1;stroke-dasharray:7,7;"/><polygon fill="#181818" points="1093.47,413.41,1083.9932,410.7285,1088.5207,414.12,1085.1292,418.6474,1093.47,413.41" style="stroke:#181818;stroke-width:1;"/><text fill="#000000" font-family="sans-serif" font-size="13" lengthAdjust="spacing" textLength="79.7266" x="970.18" y="416.3869">&#171;Extension&#187;</text></g><!--link UC08 to UC07--><g class="link" data-entity-1="UC08" data-entity-2="UC07" data-source-line="32" data-uid="lnk25" id="link_UC08_UC07"><path d="M494.11,389.95 C562.25,404 642.9636,420.6386 707.6736,433.9786" fill="none" id="UC08-to-UC07" style="stroke:#181818;stroke-width:1;stroke-dasharray:7,7;"/><polygon fill="#181818" points="713.55,435.19,705.543,429.4552,708.653,434.1805,703.9277,437.2905,713.55,435.19" style="stroke:#181818;stroke-width:1;"/><text fill="#000000" font-family="sans-serif" font-size="13" lengthAdjust="spacing" textLength="79.7266" x="565.52" y="402.3869">&#171;Extension&#187;</text></g><!--SRC=[RP9DQYCn48NtEaNXHJ9UEF6_ZGc6fib080a3myogDueassBaKgEVmSCGo3LoW-bpz4roaf7SjZgairE_UjyhLQcLs3Xm6epSxXnmQGHpKYCXyK1ngmJqxkjgAv2B7lmb09GvRQ2NCIUywG6rS3yAihU2KHlSUL3ufNTIIKjZLkCPasT2Lba-7C40SYK5kbKiiEEHa9AoNtGR-Ez_hAl_xK_Tllp81yDHWNTecP5bp8CB-5bNHcuaE-O3VtjvbJoaI5TN_HWQgE6eVyR71MRUxQ8XCHVmy3LBtd7oJeAtB8t-BMsmeTW72hY7KXidDi9BfKJ29WcR1kmf-Qa_00zVTILiXFVKiDsxgqqJDolmcwBir2RCuH6quQRjCKlUUO4FcgSHhZD4hquRkEnmyyGjZYDH8vik4fqmAC86RWzrnNmCIDGYKSi2SuqRQVRjaaK20lsestNQ5B3intTk7XK6W_NvAJueuuuowIZJZZBhA65AqkJ1rTMv6QpWvkOEcV9slIODcCgJJyhpjZpxfBpeb6yFJc3yGKwEPUjOT1p_0G00]--></g></svg>