<svg xmlns="http://www.w3.org/2000/svg" xmlns:xlink="http://www.w3.org/1999/xlink" contentStyleType="text/css" data-diagram-type="ACTIVITY" height="1382px" preserveAspectRatio="none" style="width:3058px;height:1382px;background:#FFFFFF;" version="1.1" viewBox="0 0 3058 1382" width="3058px" zoomAndPan="magnify"><defs/><g><rect fill="none" height="20.9531" style="stroke:none;stroke-width:1;" width="3025.5588" x="15" y="12.7451"/><ellipse cx="532.9287" cy="48.6982" fill="#222222" rx="10" ry="10" style="stroke:#222222;stroke-width:1;"/><rect fill="#F1F1F1" height="33.9688" rx="12.5" ry="12.5" style="stroke:#181818;stroke-width:0.5;" width="195.002" x="435.4277" y="78.6982"/><text fill="#000000" font-family="sans-serif" font-size="12" lengthAdjust="spacing" textLength="175.002" x="445.4277" y="99.8369">Client wants to fund portfolio</text><rect fill="#F1F1F1" height="33.9688" rx="12.5" ry="12.5" style="stroke:#181818;stroke-width:0.5;" width="256.291" x="21" y="490.5107"/><text fill="#000000" font-family="sans-serif" font-size="12" lengthAdjust="spacing" textLength="236.291" x="31" y="511.6494">Notification du client (Solde augment&#233;)</text><rect fill="#F1F1F1" height="33.9688" rx="12.5" ry="12.5" style="stroke:#181818;stroke-width:0.5;" width="327.3594" x="287.291" y="382.5732"/><text fill="#000000" font-family="sans-serif" font-size="12" lengthAdjust="spacing" textLength="307.3594" x="297.291" y="403.7119">Notification d'erreur (Syst&#232;me de paiement refuse)</text><rect fill="#F1F1F1" height="33.9688" rx="12.5" ry="12.5" style="stroke:#181818;stroke-width:0.5;" width="254.4805" x="640.4297" y="230.6357"/><text fill="#000000" font-family="sans-serif" font-size="12" lengthAdjust="spacing" textLength="234.4805" x="650.4297" y="251.7744">Notification d'erreur (Montant invalide)</text><rect fill="#F1F1F1" height="33.9688" rx="12.5" ry="12.5" style="stroke:#181818;stroke-width:0.5;" width="181.4316" x="442.2129" y="612.4795"/><text fill="#000000" font-family="sans-serif" font-size="12" lengthAdjust="spacing" textLength="161.4316" x="452.2129" y="633.6182">Client veut placer un ordre</text><rect fill="#F1F1F1" height="33.9688" rx="12.5" ry="12.5" style="stroke:#181818;stroke-width:0.5;" width="255.834" x="689.2568" y="764.417"/><text fill="#000000" font-family="sans-serif" font-size="12" lengthAdjust="spacing" textLength="235.834" x="699.2568" y="785.5557">Notification d'erreur (Contr&#244;le invalide)</text><ellipse cx="532.9287" cy="1359.167" fill="none" rx="11" ry="11" style="stroke:#222222;stroke-width:1;"/><ellipse cx="532.9287" cy="1359.167" fill="#222222" rx="6" ry="6" style="stroke:#222222;stroke-width:1;"/><line style="stroke:#000000;stroke-width:1.5;" x1="15" x2="15" y1="12.7451" y2="1370.167"/><rect fill="#F1F1F1" height="33.9688" rx="12.5" ry="12.5" style="stroke:#181818;stroke-width:0.5;" width="129.1309" x="1416.8193" y="132.667"/><text fill="#000000" font-family="sans-serif" font-size="12" lengthAdjust="spacing" textLength="109.1309" x="1426.8193" y="153.8057">Saisie du montant</text><polygon fill="#F1F1F1" points="1407.1482,186.6357,1555.6213,186.6357,1567.6213,198.6357,1555.6213,210.6357,1407.1482,210.6357,1395.1482,198.6357,1407.1482,186.6357" style="stroke:#181818;stroke-width:0.5;"/><text fill="#000000" font-family="sans-serif" font-size="11" lengthAdjust="spacing" textLength="148.4731" x="1407.1482" y="202.4438">Montant valide (min/max)?</text><text fill="#000000" font-family="sans-serif" font-size="11" lengthAdjust="spacing" textLength="18.686" x="1376.4622" y="196.0415">Oui</text><text fill="#000000" font-family="sans-serif" font-size="11" lengthAdjust="spacing" textLength="21.9302" x="1567.6213" y="196.0415">Non</text><rect fill="#F1F1F1" height="33.9688" rx="12.5" ry="12.5" style="stroke:#181818;stroke-width:0.5;" width="232.1738" x="1126.3359" y="230.6357"/><text fill="#000000" font-family="sans-serif" font-size="12" lengthAdjust="spacing" textLength="212.1738" x="1136.3359" y="251.7744">Cr&#233;ation d'une transaction Pending</text><rect fill="#F1F1F1" height="33.9688" rx="12.5" ry="12.5" style="stroke:#181818;stroke-width:0.5;" width="275.6563" x="1104.5947" y="284.6045"/><text fill="#000000" font-family="sans-serif" font-size="12" lengthAdjust="spacing" textLength="255.6563" x="1114.5947" y="305.7432">Envoi de requ&#234;te au syst&#232;me de paiement</text><polygon fill="#F1F1F1" points="1180.2659,338.5732,1304.5798,338.5732,1316.5798,350.5732,1304.5798,362.5732,1180.2659,362.5732,1168.2659,350.5732,1180.2659,338.5732" style="stroke:#181818;stroke-width:0.5;"/><text fill="#000000" font-family="sans-serif" font-size="11" lengthAdjust="spacing" textLength="124.314" x="1180.2659" y="354.3813">Transaction accept&#233;e?</text><text fill="#000000" font-family="sans-serif" font-size="11" lengthAdjust="spacing" textLength="18.686" x="1149.5798" y="347.979">Oui</text><text fill="#000000" font-family="sans-serif" font-size="11" lengthAdjust="spacing" textLength="21.9302" x="1316.5798" y="347.979">Non</text><rect fill="#F1F1F1" height="33.9688" rx="12.5" ry="12.5" style="stroke:#181818;stroke-width:0.5;" width="179.5684" x="995.6348" y="382.5732"/><text fill="#000000" font-family="sans-serif" font-size="12" lengthAdjust="spacing" textLength="159.5684" x="1005.6348" y="403.7119">Ajout du montant au solde</text><rect fill="#F1F1F1" height="33.9688" rx="12.5" ry="12.5" style="stroke:#181818;stroke-width:0.5;" width="260.6563" x="955.0908" y="436.542"/><text fill="#000000" font-family="sans-serif" font-size="12" lengthAdjust="spacing" textLength="240.6563" x="965.0908" y="457.6807">Mise &#224; jour de la transaction (Termin&#233;e)</text><polygon fill="#F1F1F1" points="1242.4229,534.4795,1254.4229,546.4795,1242.4229,558.4795,1230.4229,546.4795,1242.4229,534.4795" style="stroke:#181818;stroke-width:0.5;"/><polygon fill="#F1F1F1" points="1481.3848,568.4795,1493.3848,580.4795,1481.3848,592.4795,1469.3848,580.4795,1481.3848,568.4795" style="stroke:#181818;stroke-width:0.5;"/><line style="stroke:#000000;stroke-width:1.5;" x1="949.0908" x2="949.0908" y1="12.7451" y2="1370.167"/><rect fill="#F1F1F1" height="33.9688" rx="12.5" ry="12.5" style="stroke:#181818;stroke-width:0.5;" width="482.7969" x="1937.6472" y="666.4482"/><text fill="#000000" font-family="sans-serif" font-size="12" lengthAdjust="spacing" textLength="462.7969" x="1947.6472" y="687.5869">Remplissage du formulaire (Achat/Vente, Type, Instrument, Qte, Prix, Dur&#233;e)</text><polygon fill="#F1F1F1" points="2100.1443,720.417,2257.947,720.417,2269.947,732.417,2257.947,744.417,2100.1443,744.417,2088.1443,732.417,2100.1443,720.417" style="stroke:#181818;stroke-width:0.5;"/><text fill="#000000" font-family="sans-serif" font-size="11" lengthAdjust="spacing" textLength="157.8027" x="2100.1443" y="736.2251">Contr&#244;les Pr&#233;-Trade valides?</text><text fill="#000000" font-family="sans-serif" font-size="11" lengthAdjust="spacing" textLength="18.686" x="2069.4583" y="729.8228">Oui</text><text fill="#000000" font-family="sans-serif" font-size="11" lengthAdjust="spacing" textLength="21.9302" x="2269.947" y="729.8228">Non</text><rect fill="#F1F1F1" height="33.9688" rx="12.5" ry="12.5" style="stroke:#181818;stroke-width:0.5;" width="132.5059" x="1824.3269" y="764.417"/><text fill="#000000" font-family="sans-serif" font-size="12" lengthAdjust="spacing" textLength="112.5059" x="1834.3269" y="785.5557">Cr&#233;ation de l'ordre</text><rect fill="#555555" height="6" rx="2.5" ry="2.5" style="stroke:#555555;stroke-width:1;" width="719.043" x="1600.5515" y="818.3857"/><rect fill="#F1F1F1" height="33.9688" rx="12.5" ry="12.5" style="stroke:#181818;stroke-width:0.5;" width="201.7754" x="1612.5515" y="1040.292"/><text fill="#000000" font-family="sans-serif" font-size="12" lengthAdjust="spacing" textLength="181.7754" x="1622.5515" y="1061.4307">Notification de l'ordre accept&#233;</text><polygon fill="#F1F1F1" points="2179.0457,1304.167,2191.0457,1316.167,2179.0457,1328.167,2167.0457,1316.167,2179.0457,1304.167" style="stroke:#181818;stroke-width:0.5;"/><line style="stroke:#000000;stroke-width:1.5;" x1="1594.5515" x2="1594.5515" y1="12.7451" y2="1370.167"/><rect fill="#F1F1F1" height="33.9688" rx="12.5" ry="12.5" style="stroke:#181818;stroke-width:0.5;" width="326.1055" x="2556.6423" y="844.3857"/><text fill="#000000" font-family="sans-serif" font-size="12" lengthAdjust="spacing" textLength="306.1055" x="2566.6423" y="865.5244">D&#233;clenchement: Insertion de l'ordre dans le carnet</text><rect fill="#F1F1F1" height="33.9688" rx="12.5" ry="12.5" style="stroke:#181818;stroke-width:0.5;" width="255.043" x="2592.1736" y="898.3545"/><text fill="#000000" font-family="sans-serif" font-size="12" lengthAdjust="spacing" textLength="235.043" x="2602.1736" y="919.4932">Recherche de la meilleure contrepartie</text><polygon fill="#F1F1F1" points="2659.0527,952.3232,2780.3374,952.3232,2792.3374,964.3232,2780.3374,976.3232,2659.0527,976.3232,2647.0527,964.3232,2659.0527,952.3232" style="stroke:#181818;stroke-width:0.5;"/><text fill="#000000" font-family="sans-serif" font-size="11" lengthAdjust="spacing" textLength="121.2847" x="2659.0527" y="968.1313">Contrepartie trouv&#233;e?</text><text fill="#000000" font-family="sans-serif" font-size="11" lengthAdjust="spacing" textLength="18.686" x="2628.3667" y="961.729">Oui</text><text fill="#000000" font-family="sans-serif" font-size="11" lengthAdjust="spacing" textLength="21.9302" x="2792.3374" y="961.729">Non</text><rect fill="#F1F1F1" height="33.9688" rx="12.5" ry="12.5" style="stroke:#181818;stroke-width:0.5;" width="254.375" x="2442.4441" y="986.3232"/><text fill="#000000" font-family="sans-serif" font-size="12" lengthAdjust="spacing" textLength="234.375" x="2452.4441" y="1007.4619">Cr&#233;ation d'une ou plusieurs ex&#233;cutions</text><rect fill="#F1F1F1" height="33.9688" rx="12.5" ry="12.5" style="stroke:#181818;stroke-width:0.5;" width="250.8477" x="2444.2078" y="1042.292"/><text fill="#000000" font-family="sans-serif" font-size="12" lengthAdjust="spacing" textLength="230.8477" x="2454.2078" y="1063.4307">Mise &#224; jour de l'ordre (Ex&#233;cut&#233;/Partiel)</text><rect fill="#F1F1F1" height="33.9688" rx="12.5" ry="12.5" style="stroke:#181818;stroke-width:0.5;" width="188.4395" x="2475.4119" y="1096.2607"/><text fill="#000000" font-family="sans-serif" font-size="12" lengthAdjust="spacing" textLength="168.4395" x="2485.4119" y="1117.3994">Mise &#224; jour des transactions</text><rect fill="#F1F1F1" height="33.9688" rx="12.5" ry="12.5" style="stroke:#181818;stroke-width:0.5;" width="200.1406" x="2469.5613" y="1150.2295"/><text fill="#000000" font-family="sans-serif" font-size="12" lengthAdjust="spacing" textLength="180.1406" x="2479.5613" y="1171.3682">Mise &#224; jour du carnet d'ordres</text><rect fill="#F1F1F1" height="33.9688" rx="12.5" ry="12.5" style="stroke:#181818;stroke-width:0.5;" width="237.2891" x="2450.9871" y="1204.1982"/><text fill="#000000" font-family="sans-serif" font-size="12" lengthAdjust="spacing" textLength="217.2891" x="2460.9871" y="1225.3369">&#201;mission de notification d'ex&#233;cution</text><rect fill="#F1F1F1" height="33.9688" rx="12.5" ry="12.5" style="stroke:#181818;stroke-width:0.5;" width="305.8789" x="2716.8191" y="986.3232"/><text fill="#000000" font-family="sans-serif" font-size="12" lengthAdjust="spacing" textLength="285.8789" x="2726.8191" y="1007.4619">L'ordre reste en attente dans le carnet d'ordres</text><rect fill="#F1F1F1" height="33.9688" rx="12.5" ry="12.5" style="stroke:#181818;stroke-width:0.5;" width="223.0098" x="2758.2537" y="1042.292"/><text fill="#000000" font-family="sans-serif" font-size="12" lengthAdjust="spacing" textLength="203.0098" x="2768.2537" y="1063.4307">Mise &#224; jour de l'ordre (En attente)</text><polygon fill="#F1F1F1" points="2719.6951,1244.167,2731.6951,1256.167,2719.6951,1268.167,2707.6951,1256.167,2719.6951,1244.167" style="stroke:#181818;stroke-width:0.5;"/><rect fill="#555555" height="6" rx="2.5" ry="2.5" style="stroke:#555555;stroke-width:1;" width="604.2539" x="2430.4441" y="1288.167"/><line style="stroke:#000000;stroke-width:1.5;" x1="2424.4441" x2="2424.4441" y1="12.7451" y2="1370.167"/><line style="stroke:#000000;stroke-width:1.5;" x1="3038.698" x2="3038.698" y1="12.7451" y2="1370.167"/><line style="stroke:#181818;stroke-width:1;" x1="532.9287" x2="532.9287" y1="58.6982" y2="78.6982"/><polygon fill="#181818" points="528.9287,68.6982,532.9287,78.6982,536.9287,68.6982,532.9287,72.6982" style="stroke:#181818;stroke-width:1;"/><line style="stroke:#181818;stroke-width:1;" x1="1242.4229" x2="1242.4229" y1="264.6045" y2="284.6045"/><polygon fill="#181818" points="1238.4229,274.6045,1242.4229,284.6045,1246.4229,274.6045,1242.4229,278.6045" style="stroke:#181818;stroke-width:1;"/><line style="stroke:#181818;stroke-width:1;" x1="1085.4189" x2="1085.4189" y1="416.542" y2="436.542"/><polygon fill="#181818" points="1081.4189,426.542,1085.4189,436.542,1089.4189,426.542,1085.4189,430.542" style="stroke:#181818;stroke-width:1;"/><line style="stroke:#181818;stroke-width:1;" x1="1168.2659" x2="1085.4189" y1="350.5732" y2="350.5732"/><line style="stroke:#181818;stroke-width:1;" x1="1085.4189" x2="1085.4189" y1="350.5732" y2="382.5732"/><polygon fill="#181818" points="1081.4189,372.5732,1085.4189,382.5732,1089.4189,372.5732,1085.4189,376.5732" style="stroke:#181818;stroke-width:1;"/><line style="stroke:#181818;stroke-width:1;" x1="1242.4229" x2="1242.4229" y1="318.5732" y2="338.5732"/><polygon fill="#181818" points="1238.4229,328.5732,1242.4229,338.5732,1246.4229,328.5732,1242.4229,332.5732" style="stroke:#181818;stroke-width:1;"/><line style="stroke:#181818;stroke-width:1;" x1="1395.1482" x2="1242.4229" y1="198.6357" y2="198.6357"/><line style="stroke:#181818;stroke-width:1;" x1="1242.4229" x2="1242.4229" y1="198.6357" y2="230.6357"/><polygon fill="#181818" points="1238.4229,220.6357,1242.4229,230.6357,1246.4229,220.6357,1242.4229,224.6357" style="stroke:#181818;stroke-width:1;"/><line style="stroke:#181818;stroke-width:1;" x1="1242.4229" x2="1242.4229" y1="558.4795" y2="580.4795"/><line style="stroke:#181818;stroke-width:1;" x1="1242.4229" x2="1469.3848" y1="580.4795" y2="580.4795"/><polygon fill="#181818" points="1459.3848,576.4795,1469.3848,580.4795,1459.3848,584.4795,1463.3848,580.4795" style="stroke:#181818;stroke-width:1;"/><line style="stroke:#181818;stroke-width:1;" x1="1481.3848" x2="1481.3848" y1="166.6357" y2="186.6357"/><polygon fill="#181818" points="1477.3848,176.6357,1481.3848,186.6357,1485.3848,176.6357,1481.3848,180.6357" style="stroke:#181818;stroke-width:1;"/><line style="stroke:#181818;stroke-width:1;" x1="1713.4392" x2="1713.4392" y1="824.3857" y2="1040.292"/><polygon fill="#181818" points="1709.4392,1030.292,1713.4392,1040.292,1717.4392,1030.292,1713.4392,1034.292" style="stroke:#181818;stroke-width:1;"/><line style="stroke:#181818;stroke-width:1;" x1="1890.5798" x2="1890.5798" y1="798.3857" y2="818.3857"/><polygon fill="#181818" points="1886.5798,808.3857,1890.5798,818.3857,1894.5798,808.3857,1890.5798,812.3857" style="stroke:#181818;stroke-width:1;"/><line style="stroke:#181818;stroke-width:1;" x1="2088.1443" x2="1890.5798" y1="732.417" y2="732.417"/><line style="stroke:#181818;stroke-width:1;" x1="1890.5798" x2="1890.5798" y1="732.417" y2="764.417"/><polygon fill="#181818" points="1886.5798,754.417,1890.5798,764.417,1894.5798,754.417,1890.5798,758.417" style="stroke:#181818;stroke-width:1;"/><line style="stroke:#181818;stroke-width:1;" x1="2179.0457" x2="2179.0457" y1="700.417" y2="720.417"/><polygon fill="#181818" points="2175.0457,710.417,2179.0457,720.417,2183.0457,710.417,2179.0457,714.417" style="stroke:#181818;stroke-width:1;"/><line style="stroke:#181818;stroke-width:1;" x1="2719.6951" x2="2719.6951" y1="878.3545" y2="898.3545"/><polygon fill="#181818" points="2715.6951,888.3545,2719.6951,898.3545,2723.6951,888.3545,2719.6951,892.3545" style="stroke:#181818;stroke-width:1;"/><line style="stroke:#181818;stroke-width:1;" x1="2569.6316" x2="2569.6316" y1="1020.292" y2="1042.292"/><polygon fill="#181818" points="2565.6316,1032.292,2569.6316,1042.292,2573.6316,1032.292,2569.6316,1036.292" style="stroke:#181818;stroke-width:1;"/><line style="stroke:#181818;stroke-width:1;" x1="2569.6316" x2="2569.6316" y1="1076.2607" y2="1096.2607"/><polygon fill="#181818" points="2565.6316,1086.2607,2569.6316,1096.2607,2573.6316,1086.2607,2569.6316,1090.2607" style="stroke:#181818;stroke-width:1;"/><line style="stroke:#181818;stroke-width:1;" x1="2569.6316" x2="2569.6316" y1="1130.2295" y2="1150.2295"/><polygon fill="#181818" points="2565.6316,1140.2295,2569.6316,1150.2295,2573.6316,1140.2295,2569.6316,1144.2295" style="stroke:#181818;stroke-width:1;"/><line style="stroke:#181818;stroke-width:1;" x1="2569.6316" x2="2569.6316" y1="1184.1982" y2="1204.1982"/><polygon fill="#181818" points="2565.6316,1194.1982,2569.6316,1204.1982,2573.6316,1194.1982,2569.6316,1198.1982" style="stroke:#181818;stroke-width:1;"/><line style="stroke:#181818;stroke-width:1;" x1="2869.7585" x2="2869.7585" y1="1020.292" y2="1042.292"/><polygon fill="#181818" points="2865.7585,1032.292,2869.7585,1042.292,2873.7585,1032.292,2869.7585,1036.292" style="stroke:#181818;stroke-width:1;"/><line style="stroke:#181818;stroke-width:1;" x1="2647.0527" x2="2569.6316" y1="964.3232" y2="964.3232"/><line style="stroke:#181818;stroke-width:1;" x1="2569.6316" x2="2569.6316" y1="964.3232" y2="986.3232"/><polygon fill="#181818" points="2565.6316,976.3232,2569.6316,986.3232,2573.6316,976.3232,2569.6316,980.3232" style="stroke:#181818;stroke-width:1;"/><line style="stroke:#181818;stroke-width:1;" x1="2792.3374" x2="2869.7585" y1="964.3232" y2="964.3232"/><line style="stroke:#181818;stroke-width:1;" x1="2869.7585" x2="2869.7585" y1="964.3232" y2="986.3232"/><polygon fill="#181818" points="2865.7585,976.3232,2869.7585,986.3232,2873.7585,976.3232,2869.7585,980.3232" style="stroke:#181818;stroke-width:1;"/><line style="stroke:#181818;stroke-width:1;" x1="2569.6316" x2="2569.6316" y1="1238.167" y2="1256.167"/><line style="stroke:#181818;stroke-width:1;" x1="2569.6316" x2="2707.6951" y1="1256.167" y2="1256.167"/><polygon fill="#181818" points="2697.6951,1252.167,2707.6951,1256.167,2697.6951,1260.167,2701.6951,1256.167" style="stroke:#181818;stroke-width:1;"/><line style="stroke:#181818;stroke-width:1;" x1="2869.7585" x2="2869.7585" y1="1076.2607" y2="1256.167"/><line style="stroke:#181818;stroke-width:1;" x1="2869.7585" x2="2731.6951" y1="1256.167" y2="1256.167"/><polygon fill="#181818" points="2741.6951,1252.167,2731.6951,1256.167,2741.6951,1260.167,2737.6951,1256.167" style="stroke:#181818;stroke-width:1;"/><line style="stroke:#181818;stroke-width:1;" x1="2719.6951" x2="2719.6951" y1="932.3232" y2="952.3232"/><polygon fill="#181818" points="2715.6951,942.3232,2719.6951,952.3232,2723.6951,942.3232,2719.6951,946.3232" style="stroke:#181818;stroke-width:1;"/><line style="stroke:#181818;stroke-width:1;" x1="2719.6951" x2="2719.6951" y1="1268.167" y2="1288.167"/><polygon fill="#181818" points="2715.6951,1278.167,2719.6951,1288.167,2723.6951,1278.167,2719.6951,1282.167" style="stroke:#181818;stroke-width:1;"/><line style="stroke:#181818;stroke-width:1;" x1="532.9287" x2="532.9287" y1="112.667" y2="117.667"/><line style="stroke:#181818;stroke-width:1;" x1="532.9287" x2="1481.3848" y1="117.667" y2="117.667"/><line style="stroke:#181818;stroke-width:1;" x1="1481.3848" x2="1481.3848" y1="117.667" y2="132.667"/><polygon fill="#181818" points="1477.3848,122.667,1481.3848,132.667,1485.3848,122.667,1481.3848,126.667" style="stroke:#181818;stroke-width:1;"/><line style="stroke:#181818;stroke-width:1;" x1="1085.4189" x2="1085.4189" y1="470.5107" y2="475.5107"/><line style="stroke:#181818;stroke-width:1;" x1="1085.4189" x2="149.1455" y1="475.5107" y2="475.5107"/><line style="stroke:#181818;stroke-width:1;" x1="149.1455" x2="149.1455" y1="475.5107" y2="490.5107"/><polygon fill="#181818" points="145.1455,480.5107,149.1455,490.5107,153.1455,480.5107,149.1455,484.5107" style="stroke:#181818;stroke-width:1;"/><line style="stroke:#181818;stroke-width:1;" x1="1316.5798" x2="1328.5798" y1="350.5732" y2="350.5732"/><line style="stroke:#181818;stroke-width:1;" x1="1328.5798" x2="1328.5798" y1="350.5732" y2="368.5732"/><line style="stroke:#181818;stroke-width:1;" x1="1328.5798" x2="450.9707" y1="368.5732" y2="368.5732"/><line style="stroke:#181818;stroke-width:1;" x1="450.9707" x2="450.9707" y1="368.5732" y2="382.5732"/><polygon fill="#181818" points="446.9707,372.5732,450.9707,382.5732,454.9707,372.5732,450.9707,376.5732" style="stroke:#181818;stroke-width:1;"/><line style="stroke:#181818;stroke-width:1;" x1="149.1455" x2="149.1455" y1="524.4795" y2="546.4795"/><line style="stroke:#181818;stroke-width:1;" x1="149.1455" x2="1230.4229" y1="546.4795" y2="546.4795"/><polygon fill="#181818" points="1220.4229,542.4795,1230.4229,546.4795,1220.4229,550.4795,1224.4229,546.4795" style="stroke:#181818;stroke-width:1;"/><line style="stroke:#181818;stroke-width:1;" x1="450.9707" x2="450.9707" y1="416.542" y2="528.4795"/><line style="stroke:#181818;stroke-width:1;" x1="450.9707" x2="1272.4229" y1="528.4795" y2="528.4795"/><line style="stroke:#181818;stroke-width:1;" x1="1272.4229" x2="1272.4229" y1="528.4795" y2="546.4795"/><line style="stroke:#181818;stroke-width:1;" x1="1272.4229" x2="1254.4229" y1="546.4795" y2="546.4795"/><polygon fill="#181818" points="1264.4229,542.4795,1254.4229,546.4795,1264.4229,550.4795,1260.4229,546.4795" style="stroke:#181818;stroke-width:1;"/><line style="stroke:#181818;stroke-width:1;" x1="1567.6213" x2="1579.6213" y1="198.6357" y2="198.6357"/><line style="stroke:#181818;stroke-width:1;" x1="1579.6213" x2="1579.6213" y1="198.6357" y2="216.6357"/><line style="stroke:#181818;stroke-width:1;" x1="1579.6213" x2="767.6699" y1="216.6357" y2="216.6357"/><line style="stroke:#181818;stroke-width:1;" x1="767.6699" x2="767.6699" y1="216.6357" y2="230.6357"/><polygon fill="#181818" points="763.6699,220.6357,767.6699,230.6357,771.6699,220.6357,767.6699,224.6357" style="stroke:#181818;stroke-width:1;"/><line style="stroke:#181818;stroke-width:1;" x1="767.6699" x2="767.6699" y1="264.6045" y2="562.4795"/><line style="stroke:#181818;stroke-width:1;" x1="767.6699" x2="1511.3848" y1="562.4795" y2="562.4795"/><line style="stroke:#181818;stroke-width:1;" x1="1511.3848" x2="1511.3848" y1="562.4795" y2="580.4795"/><line style="stroke:#181818;stroke-width:1;" x1="1511.3848" x2="1493.3848" y1="580.4795" y2="580.4795"/><polygon fill="#181818" points="1503.3848,576.4795,1493.3848,580.4795,1503.3848,584.4795,1499.3848,580.4795" style="stroke:#181818;stroke-width:1;"/><line style="stroke:#181818;stroke-width:1;" x1="1481.3848" x2="1481.3848" y1="592.4795" y2="597.4795"/><line style="stroke:#181818;stroke-width:1;" x1="1481.3848" x2="532.9287" y1="597.4795" y2="597.4795"/><line style="stroke:#181818;stroke-width:1;" x1="532.9287" x2="532.9287" y1="597.4795" y2="612.4795"/><polygon fill="#181818" points="528.9287,602.4795,532.9287,612.4795,536.9287,602.4795,532.9287,606.4795" style="stroke:#181818;stroke-width:1;"/><line style="stroke:#181818;stroke-width:1;" x1="532.9287" x2="532.9287" y1="646.4482" y2="651.4482"/><line style="stroke:#181818;stroke-width:1;" x1="532.9287" x2="2179.0457" y1="651.4482" y2="651.4482"/><line style="stroke:#181818;stroke-width:1;" x1="2179.0457" x2="2179.0457" y1="651.4482" y2="666.4482"/><polygon fill="#181818" points="2175.0457,656.4482,2179.0457,666.4482,2183.0457,656.4482,2179.0457,660.4482" style="stroke:#181818;stroke-width:1;"/><line style="stroke:#181818;stroke-width:1;" x1="1992.5916" x2="1992.5916" y1="824.3857" y2="828.3857"/><line style="stroke:#181818;stroke-width:1;" x1="1992.5916" x2="2719.6951" y1="828.3857" y2="828.3857"/><line style="stroke:#181818;stroke-width:1;" x1="2719.6951" x2="2719.6951" y1="828.3857" y2="844.3857"/><polygon fill="#181818" points="2715.6951,834.3857,2719.6951,844.3857,2723.6951,834.3857,2719.6951,838.3857" style="stroke:#181818;stroke-width:1;"/><line style="stroke:#181818;stroke-width:1;" x1="1713.4392" x2="1713.4392" y1="1074.2607" y2="1274.167"/><line style="stroke:#181818;stroke-width:1;" x1="1713.4392" x2="2437.4441" y1="1274.167" y2="1274.167"/><line style="stroke:#181818;stroke-width:1;" x1="2437.4441" x2="2437.4441" y1="1274.167" y2="1288.167"/><polygon fill="#181818" points="2433.4441,1278.167,2437.4441,1288.167,2441.4441,1278.167,2437.4441,1282.167" style="stroke:#181818;stroke-width:1;"/><line style="stroke:#181818;stroke-width:1;" x1="2269.947" x2="2281.947" y1="732.417" y2="732.417"/><line style="stroke:#181818;stroke-width:1;" x1="2281.947" x2="2281.947" y1="732.417" y2="750.417"/><line style="stroke:#181818;stroke-width:1;" x1="2281.947" x2="817.1738" y1="750.417" y2="750.417"/><line style="stroke:#181818;stroke-width:1;" x1="817.1738" x2="817.1738" y1="750.417" y2="764.417"/><polygon fill="#181818" points="813.1738,754.417,817.1738,764.417,821.1738,754.417,817.1738,758.417" style="stroke:#181818;stroke-width:1;"/><line style="stroke:#181818;stroke-width:1;" x1="2617.6833" x2="2617.6833" y1="1294.167" y2="1298.167"/><line style="stroke:#181818;stroke-width:1;" x1="2617.6833" x2="2149.0457" y1="1298.167" y2="1298.167"/><line style="stroke:#181818;stroke-width:1;" x1="2149.0457" x2="2149.0457" y1="1298.167" y2="1316.167"/><line style="stroke:#181818;stroke-width:1;" x1="2149.0457" x2="2167.0457" y1="1316.167" y2="1316.167"/><polygon fill="#181818" points="2157.0457,1312.167,2167.0457,1316.167,2157.0457,1320.167,2161.0457,1316.167" style="stroke:#181818;stroke-width:1;"/><line style="stroke:#181818;stroke-width:1;" x1="817.1738" x2="817.1738" y1="798.3857" y2="1298.167"/><line style="stroke:#181818;stroke-width:1;" x1="817.1738" x2="2209.0457" y1="1298.167" y2="1298.167"/><line style="stroke:#181818;stroke-width:1;" x1="2209.0457" x2="2209.0457" y1="1298.167" y2="1316.167"/><line style="stroke:#181818;stroke-width:1;" x1="2209.0457" x2="2191.0457" y1="1316.167" y2="1316.167"/><polygon fill="#181818" points="2201.0457,1312.167,2191.0457,1316.167,2201.0457,1320.167,2197.0457,1316.167" style="stroke:#181818;stroke-width:1;"/><line style="stroke:#181818;stroke-width:1;" x1="2179.0457" x2="2179.0457" y1="1328.167" y2="1333.167"/><line style="stroke:#181818;stroke-width:1;" x1="2179.0457" x2="532.9287" y1="1333.167" y2="1333.167"/><line style="stroke:#181818;stroke-width:1;" x1="532.9287" x2="532.9287" y1="1333.167" y2="1348.167"/><polygon fill="#181818" points="528.9287,1338.167,532.9287,1348.167,536.9287,1338.167,532.9287,1342.167" style="stroke:#181818;stroke-width:1;"/><text fill="#000000" font-family="sans-serif" font-size="18" lengthAdjust="spacing" textLength="52.1104" x="455.9902" y="29.4531">Client</text><text fill="#000000" font-family="sans-serif" font-size="18" lengthAdjust="spacing" textLength="517.1748" x="1013.2338" y="29.4531">UC-03: Approvisionnement du portefeuille (D&#233;p&#244;t virtuel)</text><text fill="#000000" font-family="sans-serif" font-size="18" lengthAdjust="spacing" textLength="260.8066" x="1879.0945" y="29.4531">UC-05: Placement d'un ordre</text><text fill="#000000" font-family="sans-serif" font-size="18" lengthAdjust="spacing" textLength="538.1191" x="2462.5115" y="29.4531">UC-07: Appariement interne &amp; Ex&#233;cution (Matching Engine)</text><!--SRC=[hLJDRjD04BxxAUP4RAbLaH12IWweIdj0eYMqXVjgFKuMrhjcVz9MoWlm5Xmnvxw1NunPxyP9qmI4oY6HRCzyyytCzyq8ph0I2e5nfuq5fagmjwAMJA7DLbCfKBbLPXqpBXl7HxXbobbm6YfFuOqshj9Iw4cMhJvDZr- -6iDfqnYz55PefR0EEQNl0x52BwH4oC-wjkaU72o5SHvbiSh6rumoC8JMMZagCib41Vb5V80bawAap5geavhT5MyBS0jKa7_meiW0nbFJjSnHJIX7ddfoXYbBZOKtCrIbKFD9Y3jNIos0e0n-yzqlHzrxiFVMTJzh3EyR9dhM8JemkDa2OfnZuxeMTyiJyEaNxTqM_nvNon8dyVk5i0ZT3w0m4-f8zeXZVeE6cYFi8YOCy- -pBxKJbU2fGmyyRYE_3XMer3nGxjfrxdDM0O2IgEQNMXL_PJ92Ov0Qog_tZ91cN7cB_uaKxR3A7b7R8dQ8rbe_GaK5zLoUnIJosDXZROmbqleRoJWQy0gqAGsjlY_rUWopy26M6As_KkuLreqKrh9vB_rAczfB9WnLFkKBvau-KmeUmSrzG__lb7N61vGZ-1XUpuouEu8pRw9iUiTCgMFJFKYqzBbhZqc_j9BOlVsJRKYIeyGQ0fElcwqTR62F8WQOmIrhF61p9jG6zKs_0MQIM0HrQiYvB-3yhckvZxQuO8uloBnmhkPqgufKa_R29Ig-w7F7OJHeTWcKP2-WBN96k2xvy0efoT0lcR36i6bFuJnC3ecG4ycqmppJMtAizikz_jzpWZI9INgwQfwEAmuzsSawuSb9IBppD82kFPdrTMLnACTk7v53o3vDW7Zr1JPntVUQr9V6fdOiD32EuJjNWRBV9xw4I7UKni6S2thT6VpJieSR7p1Inz5jpvSCuKHD_-i16UoqVKBI3R1EDxy1]--></g></svg>